<?xml version="1.0" encoding="UTF-8" standalone="no"?>
<!DOCTYPE svg PUBLIC "-//W3C//DTD SVG 1.1//EN" "http://www.w3.org/Graphics/SVG/1.1/DTD/svg11.dtd">
<!-- Created with Vectornator (http://vectornator.io/) -->
<svg height="100%" stroke-miterlimit="10" style="fill-rule:nonzero;clip-rule:evenodd;stroke-linecap:round;stroke-linejoin:round;" version="1.1" viewBox="0 0 2560 1440" width="100%" xml:space="preserve" xmlns="http://www.w3.org/2000/svg" xmlns:vectornator="http://vectornator.io" xmlns:xlink="http://www.w3.org/1999/xlink">
<defs>
<filter color-interpolation-filters="sRGB" filterUnits="userSpaceOnUse" height="2816.07" id="Filter" width="4342.54" x="-1022" y="-671.663">
<feGaussianBlur in="SourceGraphic" result="Blur" stdDeviation="17.447"/>
</filter>
<clipPath id="TextBounds">
<rect height="303" width="1669.4" x="445.299" y="504"/>
</clipPath>
<clipPath id="TextBounds_2">
<rect height="122" width="849.544" x="855.228" y="814"/>
</clipPath>
</defs>
<clipPath id="ArtboardFrame">
<rect height="1440" width="2560" x="0" y="0"/>
</clipPath>
<g clip-path="url(#ArtboardFrame)" id="iMacs" vectornator:layerName="iMacs">
<g filter="url(#Filter)" opacity="1">
<path d="M-240.178 319.238L2686.87-252.859L2808.06 367.224L-118.981 939.322L-240.178 319.238Z" fill="#828282" fill-rule="nonzero" opacity="1" stroke="#bababa" stroke-linecap="butt" stroke-linejoin="round" stroke-width="3"/>
<path d="M-114.051 687.605L2812.99 115.508L2934.19 735.591L7.14542 1307.69L-114.051 687.605Z" fill="#686868" fill-rule="nonzero" opacity="1" stroke="#bababa" stroke-linecap="butt" stroke-linejoin="round" stroke-width="3"/>
<path d="M-123.818 1153.85L2803.23 581.753L2924.42 1201.84L-2.62112 1773.93L-123.818 1153.85Z" fill="#515151" fill-rule="nonzero" opacity="1" stroke="#bababa" stroke-linecap="butt" stroke-linejoin="round" stroke-width="3"/>
<path d="M227.173 1479.21L3154.22 907.113L3275.41 1527.2L348.37 2099.29L227.173 1479.21Z" fill="#404040" fill-rule="nonzero" opacity="1" stroke="#bababa" stroke-linecap="butt" stroke-linejoin="round" stroke-width="3"/>
<path d="M-976.887-54.4484L1950.16-626.546L2071.35-6.46253L-855.69 565.635L-976.887-54.4484Z" fill="#9d9d9d" fill-rule="nonzero" opacity="1" stroke="#bababa" stroke-linecap="butt" stroke-linejoin="round" stroke-width="3"/>
</g>
<g opacity="1">
<g opacity="1">
<g fill="#ffffff" opacity="1" stroke="none">
<path clip-path="url(#TextBounds)" d="M534.441 609.636L534.441 638.045L452.267 638.045L452.267 609.636L534.441 609.636ZM470.946 576.966L508.73 576.966L508.73 704.061C508.73 707.564 509.274 710.284 510.363 712.22C511.452 714.155 512.956 715.505 514.874 716.268C516.792 717.032 519.005 717.413 521.514 717.413C523.326 717.413 525.122 717.254 526.903 716.934C528.684 716.615 530.037 716.348 530.96 716.136L536.927 744.331C535.044 744.935 532.377 745.634 528.927 746.427C525.477 747.22 521.301 747.705 516.401 747.882C507.286 748.237 499.308 747.027 492.466 744.251C485.624 741.476 480.309 737.146 476.521 731.263C472.733 725.379 470.875 717.993 470.946 709.104L470.946 576.966Z"/>
<path clip-path="url(#TextBounds)" d="M599.639 667.165L599.639 746L561.856 746L561.856 564.182L598.574 564.182L598.574 633.713L600.136 633.713C603.261 625.676 608.256 619.358 615.121 614.759C621.987 610.16 630.581 607.861 640.903 607.861C650.408 607.861 658.697 609.914 665.769 614.022C672.842 618.129 678.335 624.012 682.247 631.671C686.159 639.329 688.098 648.485 688.063 659.139L688.063 746L650.279 746L650.279 665.886C650.314 657.505 648.192 650.971 643.913 646.284C639.634 641.596 633.636 639.252 625.918 639.252C620.792 639.252 616.249 640.356 612.289 642.563C608.33 644.771 605.241 647.955 603.021 652.116C600.802 656.277 599.674 661.293 599.639 667.165Z"/>
<path clip-path="url(#TextBounds)" d="M779.965 748.627C765.974 748.627 753.927 745.784 743.824 740.096C733.721 734.409 725.95 726.312 720.511 715.807C715.071 705.302 712.352 692.852 712.352 678.458C712.352 664.419 715.08 652.102 720.538 641.508C725.995 630.914 733.671 622.657 743.567 616.739C753.462 610.82 765.098 607.861 778.474 607.861C787.494 607.861 795.893 609.293 803.67 612.158C811.446 615.022 818.247 619.334 824.071 625.093C829.894 630.852 834.44 638.064 837.707 646.728C840.974 655.393 842.608 665.52 842.608 677.108L842.608 687.477L727.48 687.477L727.48 664.039L807.026 664.039C806.99 658.618 805.785 653.804 803.412 649.596C801.039 645.387 797.766 642.079 793.593 639.67C789.42 637.261 784.594 636.056 779.113 636.056C773.395 636.056 768.329 637.385 763.913 640.042C759.498 642.7 756.045 646.23 753.553 650.634C751.062 655.038 749.781 659.933 749.71 665.318L749.71 687.618C749.71 694.367 750.976 700.197 753.509 705.109C756.042 710.022 759.617 713.803 764.233 716.455C768.85 719.106 774.307 720.432 780.604 720.432C784.831 720.432 788.681 719.834 792.155 718.639C795.63 717.444 798.622 715.671 801.131 713.321C803.64 710.971 805.534 708.086 806.812 704.665L841.755 706.938C839.979 715.366 836.363 722.702 830.906 728.946C825.45 735.19 818.41 740.032 809.786 743.47C801.163 746.908 791.222 748.627 779.965 748.627Z"/>
<path clip-path="url(#TextBounds)" d="M980.747 648.485L946.159 650.616C945.543 647.693 944.265 645.03 942.324 642.627C940.383 640.224 937.823 638.303 934.644 636.864C931.466 635.426 927.681 634.707 923.289 634.707C917.43 634.707 912.488 635.932 908.463 638.383C904.438 640.833 902.444 644.082 902.479 648.13C902.444 651.421 903.725 654.186 906.323 656.423C908.921 658.66 913.393 660.465 919.738 661.838L944.454 666.81C957.711 669.52 967.586 673.891 974.079 679.923C980.571 685.954 983.835 693.894 983.871 703.741C983.835 712.691 981.211 720.536 975.996 727.277C970.782 734.018 963.621 739.262 954.512 743.008C945.403 746.754 934.949 748.627 923.148 748.627C905.084 748.627 890.705 744.863 880.01 737.335C869.316 729.807 863.075 719.532 861.287 706.512L898.431 704.522C899.579 710.051 902.304 714.25 906.607 717.121C910.91 719.991 916.447 721.426 923.218 721.426C929.823 721.426 935.158 720.13 939.225 717.538C943.291 714.946 945.342 711.626 945.378 707.577C945.342 704.12 943.907 701.285 941.072 699.072C938.237 696.858 933.848 695.148 927.905 693.94L904.326 689.253C890.986 686.613 881.072 682.003 874.586 675.421C868.099 668.84 864.874 660.453 864.909 650.261C864.874 641.501 867.244 633.958 872.02 627.631C876.796 621.304 883.526 616.428 892.208 613.001C900.891 609.574 911.038 607.861 922.65 607.861C939.873 607.861 953.447 611.495 963.372 618.763C973.298 626.03 979.089 635.938 980.747 648.485Z"/>
<path clip-path="url(#TextBounds)" d="M1046.66 748.557C1037.98 748.557 1030.23 747.039 1023.42 744.002C1016.61 740.966 1011.24 736.442 1007.31 730.428C1003.38 724.415 1001.41 716.916 1001.41 707.932C1001.41 700.332 1002.79 693.967 1005.55 688.836C1008.31 683.705 1012.09 679.571 1016.88 676.434C1021.67 673.297 1027.14 670.918 1033.28 669.295C1039.41 667.673 1045.86 666.537 1052.62 665.886C1060.52 665.105 1066.89 664.345 1071.75 663.605C1076.61 662.865 1080.14 661.753 1082.34 660.267C1084.55 658.781 1085.65 656.583 1085.65 653.67L1085.65 653.174C1085.65 647.539 1083.88 643.183 1080.34 640.105C1076.8 637.028 1071.82 635.489 1065.41 635.489C1058.6 635.489 1053.18 636.977 1049.15 639.954C1045.12 642.931 1042.46 646.675 1041.19 651.185L1006.17 648.344C1007.95 640.058 1011.44 632.882 1016.64 626.815C1021.84 620.748 1028.57 616.073 1036.84 612.788C1045.1 609.503 1054.67 607.861 1065.55 607.861C1073.16 607.861 1080.43 608.752 1087.37 610.533C1094.31 612.315 1100.48 615.061 1105.89 618.772C1111.3 622.482 1115.57 627.252 1118.72 633.082C1121.86 638.912 1123.43 645.893 1123.43 654.026L1123.43 746L1087.56 746L1087.56 727.108L1086.5 727.108C1084.3 731.346 1081.37 735.08 1077.72 738.312C1074.07 741.543 1069.66 744.059 1064.49 745.858C1059.32 747.657 1053.38 748.557 1046.66 748.557ZM1057.52 722.492C1063.07 722.492 1067.98 721.379 1072.23 719.154C1076.49 716.928 1079.82 713.915 1082.24 710.115C1084.65 706.316 1085.86 702.037 1085.86 697.279L1085.86 682.79C1084.72 683.535 1083.12 684.222 1081.06 684.849C1078.99 685.476 1076.7 686.039 1074.17 686.536C1071.64 687.033 1069.11 687.477 1066.57 687.867C1064.03 688.258 1061.72 688.602 1059.65 688.897C1055.2 689.536 1051.32 690.569 1048 691.996C1044.68 693.422 1042.1 695.334 1040.25 697.731C1038.41 700.128 1037.49 703.102 1037.49 706.653C1037.49 711.838 1039.38 715.774 1043.14 718.461C1046.9 721.148 1051.7 722.492 1057.52 722.492Z"/>
<path clip-path="url(#TextBounds)" d="M1152.83 746L1152.83 609.636L1188.84 609.636L1188.84 633.713L1190.4 633.713C1193.25 625.687 1197.99 619.372 1204.64 614.767C1211.3 610.163 1219.24 607.861 1228.47 607.861C1237.82 607.861 1245.78 610.19 1252.34 614.848C1258.89 619.506 1263.27 625.794 1265.48 633.713L1266.9 633.713C1269.68 625.889 1274.72 619.624 1282.02 614.919C1289.33 610.213 1297.97 607.861 1307.95 607.861C1320.67 607.861 1331.03 611.903 1339.01 619.988C1346.99 628.073 1350.99 639.514 1350.99 654.31L1350.99 746L1313.2 746L1313.2 661.767C1313.2 654.155 1311.2 648.464 1307.18 644.694C1303.17 640.924 1298.15 639.039 1292.11 639.039C1285.26 639.039 1279.9 641.214 1276.03 645.565C1272.17 649.915 1270.23 655.647 1270.23 662.761L1270.23 746L1233.59 746L1233.59 660.914C1233.59 654.226 1231.68 648.908 1227.85 644.96C1224.03 641.013 1219 639.039 1212.78 639.039C1208.57 639.039 1204.8 640.08 1201.47 642.164C1198.13 644.247 1195.49 647.174 1193.54 650.945C1191.59 654.715 1190.62 659.127 1190.62 664.181L1190.62 746L1152.83 746Z"/>
<path clip-path="url(#TextBounds)" d="M1402.91 748.272C1397.03 748.272 1392.01 746.198 1387.82 742.049C1383.64 737.901 1381.56 732.873 1381.6 726.967C1381.56 721.167 1383.64 716.201 1387.82 712.069C1392.01 707.938 1397.03 705.872 1402.91 705.872C1408.56 705.872 1413.52 707.938 1417.77 712.069C1422.03 716.201 1424.18 721.167 1424.21 726.967C1424.18 730.896 1423.17 734.474 1421.18 737.699C1419.2 740.925 1416.61 743.493 1413.42 745.405C1410.22 747.316 1406.72 748.272 1402.91 748.272Z"/>
<path clip-path="url(#TextBounds)" d="M1516.82 748.627C1502.83 748.627 1490.83 745.653 1480.82 739.705C1470.8 733.757 1463.11 725.495 1457.75 714.919C1452.39 704.342 1449.71 692.141 1449.71 678.315C1449.71 664.395 1452.42 652.141 1457.84 641.552C1463.26 630.964 1470.97 622.701 1480.98 616.765C1490.98 610.829 1502.88 607.861 1516.68 607.861C1528.54 607.861 1538.95 610.018 1547.91 614.333C1556.86 618.647 1563.94 624.719 1569.13 632.55C1574.33 640.38 1577.18 649.551 1577.69 660.062L1542.04 660.062C1541.01 653.279 1538.36 647.796 1534.09 643.611C1529.83 639.427 1524.21 637.335 1517.25 637.335C1511.43 637.335 1506.33 638.918 1501.96 642.085C1497.6 645.251 1494.2 649.85 1491.77 655.881C1489.34 661.912 1488.13 669.224 1488.13 677.818C1488.13 686.506 1489.33 693.896 1491.74 699.986C1494.14 706.077 1497.52 710.723 1501.89 713.925C1506.26 717.127 1511.38 718.728 1517.25 718.728C1521.6 718.728 1525.49 717.843 1528.93 716.073C1532.38 714.303 1535.24 711.723 1537.52 708.332C1539.8 704.94 1541.3 700.83 1542.04 696L1577.69 696C1577.11 706.428 1574.29 715.599 1569.24 723.513C1564.19 731.426 1557.22 737.59 1548.33 742.005C1539.45 746.42 1528.95 748.627 1516.82 748.627Z"/>
<path clip-path="url(#TextBounds)" d="M1663.63 748.627C1649.83 748.627 1637.91 745.689 1627.89 739.812C1617.86 733.935 1610.12 725.72 1604.68 715.168C1599.23 704.615 1596.51 692.331 1596.51 678.315C1596.51 664.253 1599.23 651.933 1604.68 641.357C1610.12 630.78 1617.86 622.553 1627.89 616.676C1637.91 610.799 1649.83 607.861 1663.63 607.861C1677.43 607.861 1689.35 610.799 1699.37 616.676C1709.4 622.553 1717.13 630.78 1722.58 641.357C1728.02 651.933 1730.75 664.253 1730.75 678.315C1730.75 692.331 1728.02 704.615 1722.58 715.168C1717.13 725.72 1709.4 733.935 1699.37 739.812C1689.35 745.689 1677.43 748.627 1663.63 748.627ZM1663.84 719.366C1670.07 719.366 1675.29 717.573 1679.52 713.986C1683.75 710.4 1686.94 705.499 1689.09 699.285C1691.24 693.07 1692.32 686.009 1692.32 678.103C1692.32 670.16 1691.24 663.078 1689.09 656.857C1686.94 650.637 1683.75 645.722 1679.52 642.111C1675.29 638.501 1670.07 636.696 1663.84 636.696C1657.47 636.696 1652.14 638.501 1647.84 642.111C1643.55 645.722 1640.32 650.637 1638.17 656.857C1636.01 663.078 1634.94 670.16 1634.94 678.103C1634.94 686.009 1636.01 693.07 1638.17 699.285C1640.32 705.499 1643.55 710.4 1647.84 713.986C1652.14 717.573 1657.47 719.366 1663.84 719.366Z"/>
<path clip-path="url(#TextBounds)" d="M1777.55 748.272C1771.68 748.272 1766.65 746.198 1762.47 742.049C1758.28 737.901 1756.21 732.873 1756.24 726.967C1756.21 721.167 1758.28 716.201 1762.47 712.069C1766.65 707.938 1771.68 705.872 1777.55 705.872C1783.21 705.872 1788.16 707.938 1792.42 712.069C1796.67 716.201 1798.82 721.167 1798.86 726.967C1798.82 730.896 1797.81 734.474 1795.83 737.699C1793.85 740.925 1791.26 743.493 1788.06 745.405C1784.86 747.316 1781.36 748.272 1777.55 748.272Z"/>
<path clip-path="url(#TextBounds)" d="M1867.68 667.165L1867.68 746L1829.89 746L1829.89 609.636L1865.9 609.636L1865.9 633.713L1867.46 633.713C1870.52 625.758 1875.59 619.461 1882.69 614.821C1889.79 610.181 1898.39 607.861 1908.51 607.861C1918 607.861 1926.26 609.935 1933.31 614.084C1940.36 618.233 1945.83 624.137 1949.73 631.796C1953.63 639.454 1955.57 648.568 1955.53 659.139L1955.53 746L1917.75 746L1917.75 665.886C1917.78 657.553 1915.65 651.03 1911.35 646.319C1907.04 641.608 1901.1 639.252 1893.53 639.252C1888.44 639.252 1883.95 640.356 1880.06 642.563C1876.17 644.771 1873.14 647.955 1870.98 652.116C1868.81 656.277 1867.71 661.293 1867.68 667.165Z"/>
<path clip-path="url(#TextBounds)" d="M1984.65 746L1984.65 723.416L2051.41 640.814L2051.41 639.821L1986.92 639.821L1986.92 609.636L2096.94 609.636L2096.94 634.21L2034.22 714.821L2034.22 715.815L2099.21 715.815L2099.21 746L1984.65 746Z"/>
</g>
<g fill="#ffffff" opacity="1" stroke="none">
<path clip-path="url(#TextBounds_2)" d="M866.387 911L866.387 838.273L889.872 838.273C895.017 838.273 899.328 839.204 902.804 841.066C906.28 842.929 908.9 845.497 910.664 848.772C912.428 852.047 913.31 855.807 913.31 860.053C913.31 864.283 912.428 868.017 910.664 871.257C908.9 874.496 906.288 877.03 902.828 878.856C899.367 880.683 895.08 881.597 889.967 881.597L869.985 881.597L869.985 875.536L889.777 875.536C893.581 875.536 896.741 874.905 899.259 873.642C901.776 872.38 903.658 870.592 904.905 868.28C906.152 865.968 906.775 863.225 906.775 860.053C906.775 856.873 906.148 854.095 904.893 851.72C903.638 849.344 901.748 847.504 899.223 846.198C896.698 844.892 893.518 844.239 889.682 844.239L873.016 844.239L873.016 911L866.387 911ZM898.442 878.188L916.34 911L908.669 911L890.961 878.188L898.442 878.188Z"/>
<path clip-path="url(#TextBounds_2)" d="M968.991 856.455C968.589 852.398 966.803 849.175 963.635 846.784C960.466 844.393 956.475 843.197 951.662 843.197C948.284 843.197 945.309 843.781 942.736 844.949C940.164 846.117 938.152 847.721 936.7 849.761C935.248 851.801 934.522 854.127 934.522 856.739C934.522 858.648 934.936 860.325 935.765 861.77C936.593 863.214 937.708 864.455 939.109 865.492C940.509 866.53 942.068 867.414 943.784 868.144C945.501 868.874 947.243 869.491 949.01 869.996L956.68 872.174C958.993 872.829 961.309 873.65 963.629 874.636C965.949 875.622 968.074 876.867 970.003 878.371C971.933 879.874 973.485 881.713 974.661 883.887C975.837 886.061 976.425 888.659 976.425 891.682C976.425 895.564 975.419 899.056 973.407 902.158C971.394 905.259 968.502 907.713 964.73 909.52C960.958 911.328 956.444 912.231 951.188 912.231C946.24 912.231 941.947 911.412 938.309 909.775C934.671 908.137 931.809 905.861 929.721 902.945C927.634 900.029 926.457 896.653 926.188 892.818L933.007 892.818C933.243 895.691 934.19 898.121 935.847 900.11C937.505 902.098 939.661 903.606 942.316 904.632C944.972 905.657 947.929 906.17 951.188 906.17C954.818 906.17 958.048 905.561 960.877 904.342C963.706 903.122 965.931 901.42 967.553 899.234C969.175 897.048 969.986 894.499 969.986 891.587C969.986 889.109 969.346 887.036 968.068 885.367C966.789 883.698 965.01 882.295 962.729 881.159C960.449 880.022 957.801 879.016 954.787 878.14L946.075 875.584C940.385 873.895 935.964 871.547 932.811 868.54C929.658 865.533 928.082 861.694 928.082 857.023C928.082 853.116 929.132 849.678 931.231 846.707C933.33 843.736 936.173 841.414 939.759 839.741C943.346 838.068 947.376 837.231 951.851 837.231C956.365 837.231 960.362 838.064 963.842 839.729C967.322 841.394 970.084 843.674 972.128 846.57C974.172 849.467 975.273 852.761 975.431 856.455L968.991 856.455Z"/>
<path clip-path="url(#TextBounds_2)" d="M1031.92 856.455C1031.51 852.398 1029.73 849.175 1026.56 846.784C1023.39 844.393 1019.4 843.197 1014.59 843.197C1011.21 843.197 1008.24 843.781 1005.66 844.949C1003.09 846.117 1001.08 847.721 999.626 849.761C998.174 851.801 997.448 854.127 997.448 856.739C997.448 858.648 997.862 860.325 998.691 861.77C999.52 863.214 1000.63 864.455 1002.03 865.492C1003.44 866.53 1004.99 867.414 1006.71 868.144C1008.43 868.874 1010.17 869.491 1011.94 869.996L1019.61 872.174C1021.92 872.829 1024.24 873.65 1026.56 874.636C1028.88 875.622 1031 876.867 1032.93 878.371C1034.86 879.874 1036.41 881.713 1037.59 883.887C1038.76 886.061 1039.35 888.659 1039.35 891.682C1039.35 895.564 1038.35 899.056 1036.33 902.158C1034.32 905.259 1031.43 907.713 1027.66 909.52C1023.88 911.328 1019.37 912.231 1014.11 912.231C1009.17 912.231 1004.87 911.412 1001.24 909.775C997.598 908.137 994.735 905.861 992.648 902.945C990.56 900.029 989.383 896.653 989.115 892.818L995.933 892.818C996.169 895.691 997.116 898.121 998.774 900.11C1000.43 902.098 1002.59 903.606 1005.24 904.632C1007.9 905.657 1010.86 906.17 1014.11 906.17C1017.74 906.17 1020.97 905.561 1023.8 904.342C1026.63 903.122 1028.86 901.42 1030.48 899.234C1032.1 897.048 1032.91 894.499 1032.91 891.587C1032.91 889.109 1032.27 887.036 1030.99 885.367C1029.72 883.698 1027.94 882.295 1025.66 881.159C1023.37 880.022 1020.73 879.016 1017.71 878.14L1009 875.584C1003.31 873.895 998.89 871.547 995.737 868.54C992.585 865.533 991.008 861.694 991.008 857.023C991.008 853.116 992.058 849.678 994.157 846.707C996.256 843.736 999.099 841.414 1002.69 839.741C1006.27 838.068 1010.3 837.231 1014.78 837.231C1019.29 837.231 1023.29 838.064 1026.77 839.729C1030.25 841.394 1033.01 843.674 1035.05 846.57C1037.1 849.467 1038.2 852.761 1038.36 856.455L1031.92 856.455Z"/>
<path clip-path="url(#TextBounds_2)" d="M1082.25 911L1082.25 856.455L1088.59 856.455L1088.59 911L1082.25 911ZM1085.47 847.08C1084.18 847.08 1083.06 846.634 1082.13 845.744C1081.2 844.854 1080.73 843.784 1080.73 842.534C1080.73 841.284 1081.2 840.214 1082.13 839.324C1083.06 838.434 1084.17 837.989 1085.47 837.989C1086.76 837.989 1087.88 838.434 1088.81 839.324C1089.74 840.214 1090.2 841.284 1090.2 842.534C1090.2 843.784 1089.74 844.854 1088.81 845.744C1087.88 846.634 1086.77 847.08 1085.47 847.08Z"/>
<path clip-path="url(#TextBounds_2)" d="M1142 868.434L1136.23 870.044C1135.67 868.418 1134.86 866.944 1133.82 865.623C1132.77 864.301 1131.41 863.247 1129.74 862.462C1128.07 861.677 1126 861.284 1123.54 861.284C1119.86 861.284 1116.83 862.162 1114.46 863.918C1112.08 865.674 1110.89 867.936 1110.89 870.706C1110.89 873.05 1111.71 874.948 1113.33 876.4C1114.95 877.852 1117.45 879 1120.84 879.845L1129.08 881.881C1133.66 883.001 1137.1 884.765 1139.38 887.172C1141.67 889.579 1142.81 892.613 1142.81 896.274C1142.81 899.344 1141.95 902.075 1140.25 904.466C1138.54 906.857 1136.16 908.733 1133.12 910.094C1130.09 911.456 1126.56 912.136 1122.54 912.136C1117.22 912.136 1112.82 910.937 1109.37 908.538C1105.91 906.139 1103.71 902.666 1102.75 898.121L1108.81 896.606C1109.58 899.85 1111.12 902.302 1113.41 903.963C1115.7 905.624 1118.72 906.455 1122.45 906.455C1126.63 906.455 1129.98 905.512 1132.5 903.626C1135.01 901.74 1136.27 899.384 1136.27 896.559C1136.27 894.357 1135.54 892.502 1134.07 890.995C1132.6 889.488 1130.37 888.375 1127.37 887.657L1118.47 885.527C1113.74 884.39 1110.24 882.595 1107.96 880.141C1105.69 877.686 1104.55 874.636 1104.55 870.99C1104.55 867.984 1105.37 865.334 1107.01 863.042C1108.64 860.75 1110.89 858.952 1113.75 857.65C1116.61 856.348 1119.88 855.697 1123.54 855.697C1128.54 855.697 1132.54 856.831 1135.54 859.1C1138.54 861.369 1140.69 864.48 1142 868.434Z"/>
<path clip-path="url(#TextBounds_2)" d="M1191.1 876.909L1191.1 911L1184.76 911L1184.76 838.273L1191.1 838.273L1191.1 865.024L1191.67 865.024C1192.95 862.199 1194.93 859.946 1197.62 858.266C1200.31 856.585 1203.71 855.744 1207.82 855.744C1211.51 855.744 1214.75 856.502 1217.55 858.017C1220.34 859.532 1222.52 861.769 1224.08 864.729C1225.64 867.688 1226.43 871.338 1226.43 875.678L1226.43 911L1220.08 911L1220.08 876.057C1220.08 871.559 1218.83 868.012 1216.33 865.415C1213.83 862.819 1210.45 861.521 1206.21 861.521C1203.3 861.521 1200.71 862.14 1198.44 863.379C1196.16 864.618 1194.37 866.39 1193.06 868.694C1191.76 870.998 1191.1 873.737 1191.1 876.909Z"/>
<path clip-path="url(#TextBounds_2)" d="M1258.34 912.231C1255.04 912.231 1252.03 911.588 1249.31 910.302C1246.59 909.015 1244.43 907.145 1242.81 904.691C1241.2 902.237 1240.39 899.258 1240.39 895.754C1240.39 893.055 1240.9 890.784 1241.92 888.942C1242.94 887.099 1244.38 885.586 1246.25 884.402C1248.12 883.218 1250.34 882.283 1252.9 881.597C1255.46 880.91 1258.28 880.373 1261.37 879.987C1264.41 879.608 1267 879.281 1269.12 879.004C1271.24 878.728 1272.86 878.282 1273.96 877.666C1275.07 877.051 1275.62 876.057 1275.62 874.684L1275.62 873.405C1275.62 869.673 1274.52 866.735 1272.31 864.593C1270.1 862.45 1266.92 861.379 1262.79 861.379C1258.84 861.379 1255.64 862.245 1253.17 863.977C1250.7 865.709 1248.96 867.747 1247.97 870.091L1241.96 867.913C1243.19 864.946 1244.89 862.566 1247.07 860.775C1249.25 858.984 1251.69 857.69 1254.38 856.893C1257.08 856.096 1259.82 855.697 1262.6 855.697C1264.69 855.697 1266.86 855.971 1269.12 856.52C1271.37 857.068 1273.47 858.011 1275.41 859.349C1277.35 860.686 1278.93 862.543 1280.14 864.918C1281.36 867.294 1281.97 870.312 1281.97 873.973L1281.97 911L1275.62 911L1275.62 902.382L1275.24 902.382C1274.48 903.992 1273.36 905.553 1271.87 907.064C1270.39 908.575 1268.52 909.814 1266.26 910.781C1264.01 911.748 1261.37 912.231 1258.34 912.231ZM1259.19 906.455C1262.55 906.455 1265.46 905.711 1267.93 904.223C1270.39 902.736 1272.29 900.751 1273.62 898.269C1274.95 895.787 1275.62 893.055 1275.62 890.072L1275.62 882.212C1275.16 882.662 1274.38 883.064 1273.27 883.419C1272.16 883.774 1270.9 884.084 1269.47 884.349C1268.05 884.613 1266.62 884.84 1265.19 885.03C1263.76 885.219 1262.49 885.385 1261.37 885.527C1258.29 885.905 1255.66 886.497 1253.47 887.302C1251.29 888.107 1249.62 889.216 1248.47 890.628C1247.31 892.041 1246.74 893.844 1246.74 896.038C1246.74 899.352 1247.92 901.917 1250.28 903.732C1252.65 905.547 1255.62 906.455 1259.19 906.455Z"/>
<path clip-path="url(#TextBounds_2)" d="M1298.73 911L1298.73 856.455L1304.88 856.455L1304.88 864.835L1305.35 864.835C1306.44 862.089 1308.34 859.871 1311.05 858.183C1313.77 856.494 1316.84 855.649 1320.27 855.649C1320.78 855.649 1321.35 855.657 1322 855.673C1322.65 855.689 1323.17 855.713 1323.58 855.744L1323.58 862.184C1323.3 862.137 1322.81 862.062 1322.1 861.959C1321.4 861.856 1320.63 861.805 1319.8 861.805C1316.96 861.805 1314.43 862.405 1312.21 863.604C1310 864.804 1308.26 866.457 1306.98 868.564C1305.71 870.671 1305.07 873.074 1305.07 875.773L1305.07 911L1298.73 911Z"/>
<path clip-path="url(#TextBounds_2)" d="M1352.32 912.136C1347.86 912.136 1343.94 910.955 1340.57 908.591C1337.2 906.228 1334.58 902.927 1332.7 898.689C1330.82 894.452 1329.88 889.512 1329.88 883.869C1329.88 878.266 1330.82 873.35 1332.71 869.12C1334.6 864.89 1337.23 861.596 1340.62 859.236C1344 856.877 1347.94 855.697 1352.42 855.697C1355.75 855.697 1358.51 856.287 1360.71 857.467C1362.9 858.646 1364.66 860.098 1366 861.823C1367.33 863.547 1368.36 865.23 1369.09 866.871L1369.65 866.871L1369.65 838.273L1376 838.273L1376 911L1369.84 911L1369.84 900.868L1369.09 900.868C1368.34 902.533 1367.3 904.235 1365.95 905.975C1364.6 907.715 1362.82 909.177 1360.61 910.361C1358.39 911.545 1355.63 912.136 1352.32 912.136ZM1353.08 906.36C1356.61 906.36 1359.61 905.391 1362.1 903.454C1364.58 901.517 1366.47 898.849 1367.78 895.452C1369.09 892.055 1369.75 888.162 1369.75 883.774C1369.75 879.418 1369.1 875.565 1367.8 872.215C1366.5 868.866 1364.61 866.238 1362.13 864.332C1359.65 862.427 1356.63 861.474 1353.08 861.474C1349.44 861.474 1346.36 862.458 1343.86 864.427C1341.35 866.396 1339.45 869.063 1338.16 872.429C1336.87 875.794 1336.23 879.576 1336.23 883.774C1336.23 888.004 1336.88 891.826 1338.18 895.239C1339.48 898.652 1341.39 901.358 1343.89 903.359C1346.4 905.359 1349.46 906.36 1353.08 906.36Z"/>
<path clip-path="url(#TextBounds_2)" d="M1443.61 856.455L1443.61 861.947L1417.57 861.947L1417.57 856.455L1443.61 856.455ZM1425.72 843.386L1432.06 843.386L1432.06 896.748C1432.06 899.037 1432.45 900.826 1433.23 902.116C1434.01 903.406 1435.03 904.318 1436.29 904.85C1437.54 905.383 1438.88 905.649 1440.3 905.649C1441.14 905.649 1441.86 905.594 1442.45 905.484C1443.03 905.373 1443.55 905.255 1443.99 905.128L1445.36 910.858C1444.75 911.087 1443.99 911.302 1443.08 911.503C1442.17 911.704 1441.06 911.805 1439.73 911.805C1437.41 911.805 1435.18 911.296 1433.04 910.278C1430.89 909.26 1429.14 907.745 1427.77 905.733C1426.4 903.72 1425.72 901.23 1425.72 898.263L1425.72 843.386Z"/>
<path clip-path="url(#TextBounds_2)" d="M1478.6 912.136C1473.89 912.136 1469.73 910.943 1466.13 908.556C1462.52 906.168 1459.7 902.858 1457.66 898.624C1455.62 894.391 1454.6 889.504 1454.6 883.964C1454.6 878.385 1455.62 873.472 1457.66 869.227C1459.7 864.981 1462.52 861.665 1466.13 859.278C1469.73 856.891 1473.89 855.697 1478.6 855.697C1483.31 855.697 1487.47 856.893 1491.07 859.284C1494.68 861.675 1497.5 864.993 1499.54 869.239C1501.59 873.484 1502.61 878.393 1502.61 883.964C1502.61 889.504 1501.59 894.391 1499.55 898.624C1497.51 902.858 1494.69 906.168 1491.08 908.556C1487.47 910.943 1483.31 912.136 1478.6 912.136ZM1478.6 906.36C1482.38 906.36 1485.59 905.342 1488.22 903.306C1490.85 901.27 1492.85 898.555 1494.22 895.162C1495.58 891.769 1496.26 888.036 1496.26 883.964C1496.26 879.892 1495.58 876.154 1494.21 872.748C1492.84 869.343 1490.84 866.613 1488.22 864.557C1485.59 862.502 1482.38 861.474 1478.6 861.474C1474.83 861.474 1471.63 862.502 1469 864.557C1466.37 866.613 1464.37 869.343 1463 872.748C1461.63 876.154 1460.94 879.892 1460.94 883.964C1460.94 888.036 1461.63 891.769 1462.99 895.162C1464.36 898.555 1466.35 901.27 1468.99 903.306C1471.62 905.342 1474.82 906.36 1478.6 906.36Z"/>
<path clip-path="url(#TextBounds_2)" d="M1579.27 890.166L1579.27 856.455L1585.61 856.455L1585.61 911L1579.27 911L1579.27 901.956L1578.79 901.956C1577.51 904.75 1575.49 907.074 1572.71 908.928C1569.94 910.783 1566.55 911.71 1562.55 911.71C1559.06 911.71 1555.97 910.945 1553.27 909.414C1550.57 907.883 1548.45 905.638 1546.92 902.679C1545.38 899.719 1544.61 896.085 1544.61 891.777L1544.61 856.455L1550.95 856.455L1550.95 891.398C1550.95 895.659 1552.2 899.084 1554.7 901.672C1557.21 904.26 1560.42 905.555 1564.35 905.555C1566.81 905.555 1569.18 904.967 1571.46 903.791C1573.74 902.615 1575.61 900.883 1577.07 898.595C1578.53 896.306 1579.27 893.497 1579.27 890.166Z"/>
<path clip-path="url(#TextBounds_2)" d="M1638.93 868.434L1633.15 870.044C1632.59 868.418 1631.79 866.944 1630.74 865.623C1629.69 864.301 1628.34 863.247 1626.66 862.462C1624.99 861.677 1622.92 861.284 1620.46 861.284C1616.78 861.284 1613.76 862.162 1611.38 863.918C1609.01 865.674 1607.82 867.936 1607.82 870.706C1607.82 873.05 1608.63 874.948 1610.25 876.4C1611.87 877.852 1614.38 879 1617.76 879.845L1626 881.881C1630.58 883.001 1634.02 884.765 1636.3 887.172C1638.59 889.579 1639.73 892.613 1639.73 896.274C1639.73 899.344 1638.88 902.075 1637.17 904.466C1635.46 906.857 1633.09 908.733 1630.05 910.094C1627.01 911.456 1623.48 912.136 1619.47 912.136C1614.14 912.136 1609.75 910.937 1606.29 908.538C1602.83 906.139 1600.63 902.666 1599.67 898.121L1605.73 896.606C1606.51 899.85 1608.04 902.302 1610.33 903.963C1612.63 905.624 1615.64 906.455 1619.37 906.455C1623.55 906.455 1626.9 905.512 1629.42 903.626C1631.94 901.74 1633.2 899.384 1633.2 896.559C1633.2 894.357 1632.46 892.502 1630.99 890.995C1629.53 889.488 1627.29 888.375 1624.29 887.657L1615.39 885.527C1610.67 884.39 1607.16 882.595 1604.89 880.141C1602.61 877.686 1601.47 874.636 1601.47 870.99C1601.47 867.984 1602.29 865.334 1603.93 863.042C1605.57 860.75 1607.82 858.952 1610.68 857.65C1613.54 856.348 1616.8 855.697 1620.46 855.697C1625.46 855.697 1629.46 856.831 1632.46 859.1C1635.46 861.369 1637.62 864.48 1638.93 868.434Z"/>
<path clip-path="url(#TextBounds_2)" d="M1675.62 912.136C1670.53 912.136 1666.13 910.945 1662.4 908.562C1658.68 906.179 1655.81 902.876 1653.79 898.654C1651.77 894.432 1650.76 889.567 1650.76 884.059C1650.76 878.551 1651.77 873.662 1653.8 869.393C1655.82 865.123 1658.63 861.773 1662.22 859.343C1665.81 856.912 1669.96 855.697 1674.67 855.697C1677.62 855.697 1680.48 856.238 1683.23 857.319C1685.98 858.4 1688.44 860.045 1690.63 862.255C1692.82 864.464 1694.55 867.248 1695.82 870.606C1697.1 873.963 1697.73 877.927 1697.73 882.496L1697.73 885.621L1655.12 885.621L1655.12 880.034L1691.29 880.034C1691.29 876.523 1690.59 873.368 1689.17 870.57C1687.76 867.773 1685.8 865.557 1683.3 863.924C1680.8 862.291 1677.92 861.474 1674.67 861.474C1671.2 861.474 1668.15 862.393 1665.52 864.232C1662.9 866.07 1660.84 868.505 1659.37 871.535C1657.89 874.566 1657.14 877.888 1657.11 881.502L1657.11 884.816C1657.11 889.149 1657.86 892.931 1659.37 896.162C1660.89 899.394 1663.03 901.901 1665.8 903.685C1668.57 905.468 1671.84 906.36 1675.62 906.36C1678.21 906.36 1680.48 905.953 1682.43 905.141C1684.39 904.328 1686.03 903.243 1687.36 901.886C1688.69 900.528 1689.7 899.037 1690.39 897.411L1696.41 899.352C1695.57 901.641 1694.21 903.756 1692.33 905.697C1690.46 907.638 1688.11 909.197 1685.3 910.373C1682.49 911.548 1679.27 912.136 1675.62 912.136Z"/>
</g>
</g>
</g>
</g>
</svg>
