<?xml version="1.0" encoding="UTF-8" standalone="no"?>
<!DOCTYPE svg PUBLIC "-//W3C//DTD SVG 1.1//EN" "http://www.w3.org/Graphics/SVG/1.1/DTD/svg11.dtd">
<!-- Created with Vectornator (http://vectornator.io/) -->
<svg height="100%" stroke-miterlimit="10" style="fill-rule:nonzero;clip-rule:evenodd;stroke-linecap:round;stroke-linejoin:round;" version="1.1" viewBox="0 0 2560 1440" width="100%" xml:space="preserve" xmlns="http://www.w3.org/2000/svg" xmlns:vectornator="http://vectornator.io" xmlns:xlink="http://www.w3.org/1999/xlink">
<defs>
<filter color-interpolation-filters="sRGB" filterUnits="userSpaceOnUse" height="2816.07" id="Filter" width="4342.54" x="-1022" y="-671.663">
<feGaussianBlur in="SourceGraphic" result="Blur" stdDeviation="17.447"/>
</filter>
<clipPath id="TextBounds">
<rect height="303" width="1669.4" x="445.299" y="504"/>
</clipPath>
<clipPath id="TextBounds_2">
<rect height="122" width="1516.16" x="521.918" y="814"/>
</clipPath>
</defs>
<clipPath id="ArtboardFrame">
<rect height="1440" width="2560" x="0" y="0"/>
</clipPath>
<g clip-path="url(#ArtboardFrame)" id="iMacs" vectornator:layerName="iMacs">
<g filter="url(#Filter)" opacity="1">
<path d="M-240.178 319.238L2686.87-252.859L2808.06 367.224L-118.981 939.322L-240.178 319.238Z" fill="#828282" fill-rule="nonzero" opacity="1" stroke="#bababa" stroke-linecap="butt" stroke-linejoin="round" stroke-width="3"/>
<path d="M-114.051 687.605L2812.99 115.508L2934.19 735.591L7.14542 1307.69L-114.051 687.605Z" fill="#686868" fill-rule="nonzero" opacity="1" stroke="#bababa" stroke-linecap="butt" stroke-linejoin="round" stroke-width="3"/>
<path d="M-123.818 1153.85L2803.23 581.753L2924.42 1201.84L-2.62112 1773.93L-123.818 1153.85Z" fill="#515151" fill-rule="nonzero" opacity="1" stroke="#bababa" stroke-linecap="butt" stroke-linejoin="round" stroke-width="3"/>
<path d="M227.173 1479.21L3154.22 907.113L3275.41 1527.2L348.37 2099.29L227.173 1479.21Z" fill="#404040" fill-rule="nonzero" opacity="1" stroke="#bababa" stroke-linecap="butt" stroke-linejoin="round" stroke-width="3"/>
<path d="M-976.887-54.4484L1950.16-626.546L2071.35-6.46253L-855.69 565.635L-976.887-54.4484Z" fill="#9d9d9d" fill-rule="nonzero" opacity="1" stroke="#bababa" stroke-linecap="butt" stroke-linejoin="round" stroke-width="3"/>
</g>
<g opacity="1">
<g opacity="1">
<g fill="#ffffff" opacity="1" stroke="none">
<path clip-path="url(#TextBounds)" d="M534.441 609.636L534.441 638.045L452.267 638.045L452.267 609.636L534.441 609.636ZM470.946 576.966L508.73 576.966L508.73 704.061C508.73 707.564 509.274 710.284 510.363 712.22C511.452 714.155 512.956 715.505 514.874 716.268C516.792 717.032 519.005 717.413 521.514 717.413C523.326 717.413 525.122 717.254 526.903 716.934C528.684 716.615 530.037 716.348 530.96 716.136L536.927 744.331C535.044 744.935 532.377 745.634 528.927 746.427C525.477 747.22 521.301 747.705 516.401 747.882C507.286 748.237 499.308 747.027 492.466 744.251C485.624 741.476 480.309 737.146 476.521 731.263C472.733 725.379 470.875 717.993 470.946 709.104L470.946 576.966Z"/>
<path clip-path="url(#TextBounds)" d="M599.639 667.165L599.639 746L561.856 746L561.856 564.182L598.574 564.182L598.574 633.713L600.136 633.713C603.261 625.676 608.256 619.358 615.121 614.759C621.987 610.16 630.581 607.861 640.903 607.861C650.408 607.861 658.697 609.914 665.769 614.022C672.842 618.129 678.335 624.012 682.247 631.671C686.159 639.329 688.098 648.485 688.063 659.139L688.063 746L650.279 746L650.279 665.886C650.314 657.505 648.192 650.971 643.913 646.284C639.634 641.596 633.636 639.252 625.918 639.252C620.792 639.252 616.249 640.356 612.289 642.563C608.33 644.771 605.241 647.955 603.021 652.116C600.802 656.277 599.674 661.293 599.639 667.165Z"/>
<path clip-path="url(#TextBounds)" d="M779.965 748.627C765.974 748.627 753.927 745.784 743.824 740.096C733.721 734.409 725.95 726.312 720.511 715.807C715.071 705.302 712.352 692.852 712.352 678.458C712.352 664.419 715.08 652.102 720.538 641.508C725.995 630.914 733.671 622.657 743.567 616.739C753.462 610.82 765.098 607.861 778.474 607.861C787.494 607.861 795.893 609.293 803.67 612.158C811.446 615.022 818.247 619.334 824.071 625.093C829.894 630.852 834.44 638.064 837.707 646.728C840.974 655.393 842.608 665.52 842.608 677.108L842.608 687.477L727.48 687.477L727.48 664.039L807.026 664.039C806.99 658.618 805.785 653.804 803.412 649.596C801.039 645.387 797.766 642.079 793.593 639.67C789.42 637.261 784.594 636.056 779.113 636.056C773.395 636.056 768.329 637.385 763.913 640.042C759.498 642.7 756.045 646.23 753.553 650.634C751.062 655.038 749.781 659.933 749.71 665.318L749.71 687.618C749.71 694.367 750.976 700.197 753.509 705.109C756.042 710.022 759.617 713.803 764.233 716.455C768.85 719.106 774.307 720.432 780.604 720.432C784.831 720.432 788.681 719.834 792.155 718.639C795.63 717.444 798.622 715.671 801.131 713.321C803.64 710.971 805.534 708.086 806.812 704.665L841.755 706.938C839.979 715.366 836.363 722.702 830.906 728.946C825.45 735.19 818.41 740.032 809.786 743.47C801.163 746.908 791.222 748.627 779.965 748.627Z"/>
<path clip-path="url(#TextBounds)" d="M980.747 648.485L946.159 650.616C945.543 647.693 944.265 645.03 942.324 642.627C940.383 640.224 937.823 638.303 934.644 636.864C931.466 635.426 927.681 634.707 923.289 634.707C917.43 634.707 912.488 635.932 908.463 638.383C904.438 640.833 902.444 644.082 902.479 648.13C902.444 651.421 903.725 654.186 906.323 656.423C908.921 658.66 913.393 660.465 919.738 661.838L944.454 666.81C957.711 669.52 967.586 673.891 974.079 679.923C980.571 685.954 983.835 693.894 983.871 703.741C983.835 712.691 981.211 720.536 975.996 727.277C970.782 734.018 963.621 739.262 954.512 743.008C945.403 746.754 934.949 748.627 923.148 748.627C905.084 748.627 890.705 744.863 880.01 737.335C869.316 729.807 863.075 719.532 861.287 706.512L898.431 704.522C899.579 710.051 902.304 714.25 906.607 717.121C910.91 719.991 916.447 721.426 923.218 721.426C929.823 721.426 935.158 720.13 939.225 717.538C943.291 714.946 945.342 711.626 945.378 707.577C945.342 704.12 943.907 701.285 941.072 699.072C938.237 696.858 933.848 695.148 927.905 693.94L904.326 689.253C890.986 686.613 881.072 682.003 874.586 675.421C868.099 668.84 864.874 660.453 864.909 650.261C864.874 641.501 867.244 633.958 872.02 627.631C876.796 621.304 883.526 616.428 892.208 613.001C900.891 609.574 911.038 607.861 922.65 607.861C939.873 607.861 953.447 611.495 963.372 618.763C973.298 626.03 979.089 635.938 980.747 648.485Z"/>
<path clip-path="url(#TextBounds)" d="M1046.66 748.557C1037.98 748.557 1030.23 747.039 1023.42 744.002C1016.61 740.966 1011.24 736.442 1007.31 730.428C1003.38 724.415 1001.41 716.916 1001.41 707.932C1001.41 700.332 1002.79 693.967 1005.55 688.836C1008.31 683.705 1012.09 679.571 1016.88 676.434C1021.67 673.297 1027.14 670.918 1033.28 669.295C1039.41 667.673 1045.86 666.537 1052.62 665.886C1060.52 665.105 1066.89 664.345 1071.75 663.605C1076.61 662.865 1080.14 661.753 1082.34 660.267C1084.55 658.781 1085.65 656.583 1085.65 653.67L1085.65 653.174C1085.65 647.539 1083.88 643.183 1080.34 640.105C1076.8 637.028 1071.82 635.489 1065.41 635.489C1058.6 635.489 1053.18 636.977 1049.15 639.954C1045.12 642.931 1042.46 646.675 1041.19 651.185L1006.17 648.344C1007.95 640.058 1011.44 632.882 1016.64 626.815C1021.84 620.748 1028.57 616.073 1036.84 612.788C1045.1 609.503 1054.67 607.861 1065.55 607.861C1073.16 607.861 1080.43 608.752 1087.37 610.533C1094.31 612.315 1100.48 615.061 1105.89 618.772C1111.3 622.482 1115.57 627.252 1118.72 633.082C1121.86 638.912 1123.43 645.893 1123.43 654.026L1123.43 746L1087.56 746L1087.56 727.108L1086.5 727.108C1084.3 731.346 1081.37 735.08 1077.72 738.312C1074.07 741.543 1069.66 744.059 1064.49 745.858C1059.32 747.657 1053.38 748.557 1046.66 748.557ZM1057.52 722.492C1063.07 722.492 1067.98 721.379 1072.23 719.154C1076.49 716.928 1079.82 713.915 1082.24 710.115C1084.65 706.316 1085.86 702.037 1085.86 697.279L1085.86 682.79C1084.72 683.535 1083.12 684.222 1081.06 684.849C1078.99 685.476 1076.7 686.039 1074.17 686.536C1071.64 687.033 1069.11 687.477 1066.57 687.867C1064.03 688.258 1061.72 688.602 1059.65 688.897C1055.2 689.536 1051.32 690.569 1048 691.996C1044.68 693.422 1042.1 695.334 1040.25 697.731C1038.41 700.128 1037.49 703.102 1037.49 706.653C1037.49 711.838 1039.38 715.774 1043.14 718.461C1046.9 721.148 1051.7 722.492 1057.52 722.492Z"/>
<path clip-path="url(#TextBounds)" d="M1152.83 746L1152.83 609.636L1188.84 609.636L1188.84 633.713L1190.4 633.713C1193.25 625.687 1197.99 619.372 1204.64 614.767C1211.3 610.163 1219.24 607.861 1228.47 607.861C1237.82 607.861 1245.78 610.19 1252.34 614.848C1258.89 619.506 1263.27 625.794 1265.48 633.713L1266.9 633.713C1269.68 625.889 1274.72 619.624 1282.02 614.919C1289.33 610.213 1297.97 607.861 1307.95 607.861C1320.67 607.861 1331.03 611.903 1339.01 619.988C1346.99 628.073 1350.99 639.514 1350.99 654.31L1350.99 746L1313.2 746L1313.2 661.767C1313.2 654.155 1311.2 648.464 1307.18 644.694C1303.17 640.924 1298.15 639.039 1292.11 639.039C1285.26 639.039 1279.9 641.214 1276.03 645.565C1272.17 649.915 1270.23 655.647 1270.23 662.761L1270.23 746L1233.59 746L1233.59 660.914C1233.59 654.226 1231.68 648.908 1227.85 644.96C1224.03 641.013 1219 639.039 1212.78 639.039C1208.57 639.039 1204.8 640.08 1201.47 642.164C1198.13 644.247 1195.49 647.174 1193.54 650.945C1191.59 654.715 1190.62 659.127 1190.62 664.181L1190.62 746L1152.83 746Z"/>
<path clip-path="url(#TextBounds)" d="M1402.91 748.272C1397.03 748.272 1392.01 746.198 1387.82 742.049C1383.64 737.901 1381.56 732.873 1381.6 726.967C1381.56 721.167 1383.64 716.201 1387.82 712.069C1392.01 707.938 1397.03 705.872 1402.91 705.872C1408.56 705.872 1413.52 707.938 1417.77 712.069C1422.03 716.201 1424.18 721.167 1424.21 726.967C1424.18 730.896 1423.17 734.474 1421.18 737.699C1419.2 740.925 1416.61 743.493 1413.42 745.405C1410.22 747.316 1406.72 748.272 1402.91 748.272Z"/>
<path clip-path="url(#TextBounds)" d="M1516.82 748.627C1502.83 748.627 1490.83 745.653 1480.82 739.705C1470.8 733.757 1463.11 725.495 1457.75 714.919C1452.39 704.342 1449.71 692.141 1449.71 678.315C1449.71 664.395 1452.42 652.141 1457.84 641.552C1463.26 630.964 1470.97 622.701 1480.98 616.765C1490.98 610.829 1502.88 607.861 1516.68 607.861C1528.54 607.861 1538.95 610.018 1547.91 614.333C1556.86 618.647 1563.94 624.719 1569.13 632.55C1574.33 640.38 1577.18 649.551 1577.69 660.062L1542.04 660.062C1541.01 653.279 1538.36 647.796 1534.09 643.611C1529.83 639.427 1524.21 637.335 1517.25 637.335C1511.43 637.335 1506.33 638.918 1501.96 642.085C1497.6 645.251 1494.2 649.85 1491.77 655.881C1489.34 661.912 1488.13 669.224 1488.13 677.818C1488.13 686.506 1489.33 693.896 1491.74 699.986C1494.14 706.077 1497.52 710.723 1501.89 713.925C1506.26 717.127 1511.38 718.728 1517.25 718.728C1521.6 718.728 1525.49 717.843 1528.93 716.073C1532.38 714.303 1535.24 711.723 1537.52 708.332C1539.8 704.94 1541.3 700.83 1542.04 696L1577.69 696C1577.11 706.428 1574.29 715.599 1569.24 723.513C1564.19 731.426 1557.22 737.59 1548.33 742.005C1539.45 746.42 1528.95 748.627 1516.82 748.627Z"/>
<path clip-path="url(#TextBounds)" d="M1663.63 748.627C1649.83 748.627 1637.91 745.689 1627.89 739.812C1617.86 733.935 1610.12 725.72 1604.68 715.168C1599.23 704.615 1596.51 692.331 1596.51 678.315C1596.51 664.253 1599.23 651.933 1604.68 641.357C1610.12 630.78 1617.86 622.553 1627.89 616.676C1637.91 610.799 1649.83 607.861 1663.63 607.861C1677.43 607.861 1689.35 610.799 1699.37 616.676C1709.4 622.553 1717.13 630.78 1722.58 641.357C1728.02 651.933 1730.75 664.253 1730.75 678.315C1730.75 692.331 1728.02 704.615 1722.58 715.168C1717.13 725.72 1709.4 733.935 1699.37 739.812C1689.35 745.689 1677.43 748.627 1663.63 748.627ZM1663.84 719.366C1670.07 719.366 1675.29 717.573 1679.52 713.986C1683.75 710.4 1686.94 705.499 1689.09 699.285C1691.24 693.07 1692.32 686.009 1692.32 678.103C1692.32 670.16 1691.24 663.078 1689.09 656.857C1686.94 650.637 1683.75 645.722 1679.52 642.111C1675.29 638.501 1670.07 636.696 1663.84 636.696C1657.47 636.696 1652.14 638.501 1647.84 642.111C1643.55 645.722 1640.32 650.637 1638.17 656.857C1636.01 663.078 1634.94 670.16 1634.94 678.103C1634.94 686.009 1636.01 693.07 1638.17 699.285C1640.32 705.499 1643.55 710.4 1647.84 713.986C1652.14 717.573 1657.47 719.366 1663.84 719.366Z"/>
<path clip-path="url(#TextBounds)" d="M1777.55 748.272C1771.68 748.272 1766.65 746.198 1762.47 742.049C1758.28 737.901 1756.21 732.873 1756.24 726.967C1756.21 721.167 1758.28 716.201 1762.47 712.069C1766.65 707.938 1771.68 705.872 1777.55 705.872C1783.21 705.872 1788.16 707.938 1792.42 712.069C1796.67 716.201 1798.82 721.167 1798.86 726.967C1798.82 730.896 1797.81 734.474 1795.83 737.699C1793.85 740.925 1791.26 743.493 1788.06 745.405C1784.86 747.316 1781.36 748.272 1777.55 748.272Z"/>
<path clip-path="url(#TextBounds)" d="M1867.68 667.165L1867.68 746L1829.89 746L1829.89 609.636L1865.9 609.636L1865.9 633.713L1867.46 633.713C1870.52 625.758 1875.59 619.461 1882.69 614.821C1889.79 610.181 1898.39 607.861 1908.51 607.861C1918 607.861 1926.26 609.935 1933.31 614.084C1940.36 618.233 1945.83 624.137 1949.73 631.796C1953.63 639.454 1955.57 648.568 1955.53 659.139L1955.53 746L1917.75 746L1917.75 665.886C1917.78 657.553 1915.65 651.03 1911.35 646.319C1907.04 641.608 1901.1 639.252 1893.53 639.252C1888.44 639.252 1883.95 640.356 1880.06 642.563C1876.17 644.771 1873.14 647.955 1870.98 652.116C1868.81 656.277 1867.71 661.293 1867.68 667.165Z"/>
<path clip-path="url(#TextBounds)" d="M1984.65 746L1984.65 723.416L2051.41 640.814L2051.41 639.821L1986.92 639.821L1986.92 609.636L2096.94 609.636L2096.94 634.21L2034.22 714.821L2034.22 715.815L2099.21 715.815L2099.21 746L1984.65 746Z"/>
</g>
<g fill="#ffffff" opacity="1" stroke="none">
<path clip-path="url(#TextBounds_2)" d="M554.384 911L533.077 911L533.077 838.273L555.662 838.273C562.599 838.273 568.535 839.719 573.471 842.611C578.407 845.503 582.191 849.648 584.823 855.046C587.455 860.443 588.767 866.911 588.759 874.447C588.751 882.078 587.404 888.622 584.717 894.079C582.03 899.536 578.127 903.72 573.01 906.632C567.892 909.544 561.683 911 554.384 911ZM539.706 905.034L554.005 905.034C560.255 905.034 565.483 903.805 569.689 901.347C573.895 898.888 577.054 895.375 579.165 890.806C581.276 886.237 582.327 880.784 582.32 874.447C582.311 868.173 581.28 862.78 579.224 858.266C577.168 853.752 574.136 850.285 570.127 847.867C566.118 845.448 561.17 844.239 555.283 844.239L539.706 844.239L539.706 905.034Z"/>
<path clip-path="url(#TextBounds_2)" d="M618.73 912.231C615.432 912.231 612.423 911.588 609.705 910.302C606.986 909.015 604.82 907.145 603.206 904.691C601.592 902.237 600.786 899.258 600.786 895.754C600.786 893.055 601.295 890.784 602.313 888.942C603.331 887.099 604.775 885.586 606.645 884.402C608.515 883.218 610.731 882.283 613.291 881.597C615.852 880.91 618.675 880.373 621.761 879.987C624.807 879.608 627.391 879.281 629.514 879.004C631.637 878.728 633.251 878.282 634.355 877.666C635.46 877.051 636.013 876.057 636.013 874.684L636.013 873.405C636.013 869.673 634.908 866.735 632.698 864.593C630.489 862.45 627.316 861.379 623.181 861.379C619.236 861.379 616.028 862.245 613.558 863.977C611.088 865.709 609.355 867.747 608.361 870.091L602.348 867.913C603.579 864.946 605.284 862.566 607.462 860.775C609.64 858.984 612.078 857.69 614.777 856.893C617.476 856.096 620.214 855.697 622.992 855.697C625.083 855.697 627.255 855.971 629.508 856.52C631.761 857.068 633.858 858.011 635.8 859.349C637.741 860.686 639.319 862.543 640.535 864.918C641.75 867.294 642.358 870.312 642.358 873.973L642.358 911L636.013 911L636.013 902.382L635.634 902.382C634.876 903.992 633.754 905.553 632.266 907.064C630.779 908.575 628.908 909.814 626.655 910.781C624.402 911.748 621.761 912.231 618.73 912.231ZM619.583 906.455C622.944 906.455 625.856 905.711 628.319 904.223C630.781 902.736 632.679 900.751 634.012 898.269C635.346 895.787 636.013 893.055 636.013 890.072L636.013 882.212C635.555 882.662 634.772 883.064 633.663 883.419C632.554 883.774 631.288 884.084 629.863 884.349C628.439 884.613 627.012 884.84 625.584 885.03C624.156 885.219 622.881 885.385 621.761 885.527C618.683 885.905 616.051 886.497 613.865 887.302C611.68 888.107 610.011 889.216 608.859 890.628C607.706 892.041 607.13 893.844 607.13 896.038C607.13 899.352 608.312 901.917 610.675 903.732C613.039 905.547 616.008 906.455 619.583 906.455Z"/>
<path clip-path="url(#TextBounds_2)" d="M680.615 856.455L680.615 861.947L654.573 861.947L654.573 856.455L680.615 856.455ZM662.717 843.386L669.062 843.386L669.062 896.748C669.062 899.037 669.453 900.826 670.234 902.116C671.015 903.406 672.033 904.318 673.288 904.85C674.543 905.383 675.88 905.649 677.301 905.649C678.145 905.649 678.861 905.594 679.449 905.484C680.037 905.373 680.552 905.255 680.994 905.128L682.367 910.858C681.751 911.087 680.99 911.302 680.082 911.503C679.175 911.704 678.058 911.805 676.733 911.805C674.412 911.805 672.181 911.296 670.039 910.278C667.896 909.26 666.14 907.745 664.771 905.733C663.402 903.72 662.717 901.23 662.717 898.263L662.717 843.386Z"/>
<path clip-path="url(#TextBounds_2)" d="M710.208 912.231C706.909 912.231 703.901 911.588 701.182 910.302C698.463 909.015 696.297 907.145 694.683 904.691C693.07 902.237 692.263 899.258 692.263 895.754C692.263 893.055 692.772 890.784 693.79 888.942C694.808 887.099 696.252 885.586 698.122 884.402C699.993 883.218 702.208 882.283 704.769 881.597C707.329 880.91 710.152 880.373 713.238 879.987C716.284 879.608 718.869 879.281 720.991 879.004C723.114 878.728 724.728 878.282 725.833 877.666C726.938 877.051 727.49 876.057 727.49 874.684L727.49 873.405C727.49 869.673 726.385 866.735 724.176 864.593C721.966 862.45 718.794 861.379 714.658 861.379C710.713 861.379 707.505 862.245 705.035 863.977C702.565 865.709 700.833 867.747 699.838 870.091L693.825 867.913C695.056 864.946 696.761 862.566 698.939 860.775C701.117 858.984 703.556 857.69 706.254 856.893C708.953 856.096 711.691 855.697 714.469 855.697C716.56 855.697 718.732 855.971 720.985 856.52C723.239 857.068 725.336 858.011 727.277 859.349C729.218 860.686 730.797 862.543 732.012 864.918C733.227 867.294 733.835 870.312 733.835 873.973L733.835 911L727.49 911L727.49 902.382L727.111 902.382C726.354 903.992 725.231 905.553 723.743 907.064C722.256 908.575 720.386 909.814 718.133 910.781C715.88 911.748 713.238 912.231 710.208 912.231ZM711.06 906.455C714.422 906.455 717.334 905.711 719.796 904.223C722.258 902.736 724.156 900.751 725.49 898.269C726.823 895.787 727.49 893.055 727.49 890.072L727.49 882.212C727.032 882.662 726.249 883.064 725.14 883.419C724.032 883.774 722.765 884.084 721.341 884.349C719.916 884.613 718.49 884.84 717.061 885.03C715.633 885.219 714.359 885.385 713.238 885.527C710.16 885.905 707.529 886.497 705.343 887.302C703.157 888.107 701.488 889.216 700.336 890.628C699.184 892.041 698.608 893.844 698.608 896.038C698.608 899.352 699.789 901.917 702.153 903.732C704.516 905.547 707.485 906.455 711.06 906.455Z"/>
<path clip-path="url(#TextBounds_2)" d="M751.922 911L751.922 838.273L758.267 838.273L758.267 866.871L758.835 866.871C759.561 865.23 760.59 863.547 761.924 861.823C763.258 860.098 765.022 858.646 767.215 857.467C769.409 856.287 772.171 855.697 775.501 855.697C779.984 855.697 783.917 856.877 787.303 859.236C790.688 861.596 793.324 864.89 795.21 869.12C797.096 873.35 798.039 878.266 798.039 883.869C798.039 889.512 797.098 894.452 795.216 898.689C793.334 902.927 790.71 906.228 787.344 908.591C783.979 910.955 780.063 912.136 775.596 912.136C772.29 912.136 769.53 911.545 767.316 910.361C765.102 909.177 763.321 907.715 761.972 905.975C760.622 904.235 759.577 902.533 758.835 900.868L758.077 900.868L758.077 911L751.922 911ZM758.172 883.774C758.172 888.162 758.827 892.055 760.137 895.452C761.447 898.849 763.343 901.517 765.825 903.454C768.306 905.391 771.311 906.36 774.838 906.36C778.46 906.36 781.524 905.359 784.03 903.359C786.536 901.358 788.439 898.652 789.741 895.239C791.044 891.826 791.695 888.004 791.695 883.774C791.695 879.576 791.049 875.794 789.759 872.429C788.469 869.063 786.571 866.396 784.065 864.427C781.56 862.458 778.484 861.474 774.838 861.474C771.287 861.474 768.271 862.427 765.789 864.332C763.307 866.238 761.417 868.866 760.119 872.215C758.821 875.565 758.172 879.418 758.172 883.774Z"/>
<path clip-path="url(#TextBounds_2)" d="M827.159 912.231C823.86 912.231 820.852 911.588 818.133 910.302C815.414 909.015 813.248 907.145 811.634 904.691C810.021 902.237 809.214 899.258 809.214 895.754C809.214 893.055 809.723 890.784 810.741 888.942C811.759 887.099 813.203 885.586 815.073 884.402C816.943 883.218 819.159 882.283 821.72 881.597C824.28 880.91 827.103 880.373 830.189 879.987C833.235 879.608 835.819 879.281 837.942 879.004C840.065 878.728 841.679 878.282 842.784 877.666C843.889 877.051 844.441 876.057 844.441 874.684L844.441 873.405C844.441 869.673 843.336 866.735 841.127 864.593C838.917 862.45 835.744 861.379 831.609 861.379C827.664 861.379 824.456 862.245 821.986 863.977C819.516 865.709 817.784 867.747 816.789 870.091L810.776 867.913C812.007 864.946 813.712 862.566 815.89 860.775C818.068 858.984 820.506 857.69 823.205 856.893C825.904 856.096 828.642 855.697 831.42 855.697C833.511 855.697 835.683 855.971 837.936 856.52C840.189 857.068 842.287 858.011 844.228 859.349C846.169 860.686 847.748 862.543 848.963 864.918C850.178 867.294 850.786 870.312 850.786 873.973L850.786 911L844.441 911L844.441 902.382L844.062 902.382C843.304 903.992 842.182 905.553 840.694 907.064C839.207 908.575 837.336 909.814 835.084 910.781C832.831 911.748 830.189 912.231 827.159 912.231ZM828.011 906.455C831.373 906.455 834.285 905.711 836.747 904.223C839.209 902.736 841.107 900.751 842.44 898.269C843.774 895.787 844.441 893.055 844.441 890.072L844.441 882.212C843.983 882.662 843.2 883.064 842.091 883.419C840.983 883.774 839.716 884.084 838.291 884.349C836.867 884.613 835.441 884.84 834.012 885.03C832.584 885.219 831.31 885.385 830.189 885.527C827.111 885.905 824.479 886.497 822.294 887.302C820.108 888.107 818.439 889.216 817.287 890.628C816.135 892.041 815.559 893.844 815.559 896.038C815.559 899.352 816.74 901.917 819.104 903.732C821.467 905.547 824.436 906.455 828.011 906.455Z"/>
<path clip-path="url(#TextBounds_2)" d="M904.195 868.434L898.418 870.044C897.858 868.418 897.055 866.944 896.009 865.623C894.964 864.301 893.604 863.247 891.932 862.462C890.259 861.677 888.191 861.284 885.729 861.284C882.051 861.284 879.025 862.162 876.65 863.918C874.274 865.674 873.087 867.936 873.087 870.706C873.087 873.05 873.898 874.948 875.519 876.4C877.141 877.852 879.645 879 883.03 879.845L891.269 881.881C895.853 883.001 899.288 884.765 901.573 887.172C903.858 889.579 905 892.613 905 896.274C905 899.344 904.146 902.075 902.437 904.466C900.728 906.857 898.355 908.733 895.317 910.094C892.278 911.456 888.751 912.136 884.735 912.136C879.408 912.136 875.016 910.937 871.56 908.538C868.103 906.139 865.898 902.666 864.943 898.121L871.003 896.606C871.777 899.85 873.31 902.302 875.602 903.963C877.894 905.624 880.907 906.455 884.64 906.455C888.822 906.455 892.172 905.512 894.689 903.626C897.207 901.74 898.465 899.384 898.465 896.559C898.465 894.357 897.731 892.502 896.264 890.995C894.796 889.488 892.563 888.375 889.564 887.657L880.662 885.527C875.935 884.39 872.434 882.595 870.157 880.141C867.88 877.686 866.742 874.636 866.742 870.99C866.742 867.984 867.561 865.334 869.198 863.042C870.836 860.75 873.085 858.952 875.945 857.65C878.806 856.348 882.067 855.697 885.729 855.697C890.732 855.697 894.733 856.831 897.732 859.1C900.73 861.369 902.885 864.48 904.195 868.434Z"/>
<path clip-path="url(#TextBounds_2)" d="M940.89 912.136C935.8 912.136 931.394 910.945 927.674 908.562C923.953 906.179 921.083 902.876 919.062 898.654C917.042 894.432 916.032 889.567 916.032 884.059C916.032 878.551 917.044 873.662 919.068 869.393C921.092 865.123 923.9 861.773 927.49 859.343C931.081 856.912 935.231 855.697 939.943 855.697C942.894 855.697 945.745 856.238 948.495 857.319C951.245 858.4 953.713 860.045 955.899 862.255C958.085 864.464 959.815 867.248 961.09 870.606C962.364 873.963 963.002 877.927 963.002 882.496L963.002 885.621L920.388 885.621L920.388 880.034L956.562 880.034C956.562 876.523 955.856 873.368 954.443 870.57C953.031 867.773 951.074 865.557 948.572 863.924C946.071 862.291 943.194 861.474 939.943 861.474C936.471 861.474 933.421 862.393 930.793 864.232C928.165 866.07 926.113 868.505 924.638 871.535C923.162 874.566 922.408 877.888 922.377 881.502L922.377 884.816C922.377 889.149 923.132 892.931 924.643 896.162C926.154 899.394 928.295 901.901 931.065 903.685C933.835 905.468 937.11 906.36 940.89 906.36C943.478 906.36 945.749 905.953 947.702 905.141C949.655 904.328 951.296 903.243 952.626 901.886C953.956 900.528 954.968 899.037 955.663 897.411L961.676 899.352C960.839 901.641 959.482 903.756 957.604 905.697C955.726 907.638 953.382 909.197 950.572 910.373C947.763 911.548 944.536 912.136 940.89 912.136Z"/>
<path clip-path="url(#TextBounds_2)" d="M1013.52 868.434L1007.75 870.044C1007.19 868.418 1006.38 866.944 1005.34 865.623C1004.29 864.301 1002.93 863.247 1001.26 862.462C999.586 861.677 997.519 861.284 995.057 861.284C991.379 861.284 988.353 862.162 985.977 863.918C983.602 865.674 982.415 867.936 982.415 870.706C982.415 873.05 983.225 874.948 984.847 876.4C986.469 877.852 988.972 879 992.358 879.845L1000.6 881.881C1005.18 883.001 1008.62 884.765 1010.9 887.172C1013.19 889.579 1014.33 892.613 1014.33 896.274C1014.33 899.344 1013.47 902.075 1011.76 904.466C1010.06 906.857 1007.68 908.733 1004.64 910.094C1001.61 911.456 998.079 912.136 994.062 912.136C988.736 912.136 984.344 910.937 980.888 908.538C977.431 906.139 975.225 902.666 974.27 898.121L980.331 896.606C981.105 899.85 982.637 902.302 984.93 903.963C987.222 905.624 990.235 906.455 993.967 906.455C998.15 906.455 1001.5 905.512 1004.02 903.626C1006.53 901.74 1007.79 899.384 1007.79 896.559C1007.79 894.357 1007.06 892.502 1005.59 890.995C1004.12 889.488 1001.89 888.375 998.892 887.657L989.99 885.527C985.263 884.39 981.761 882.595 979.485 880.141C977.208 877.686 976.07 874.636 976.07 870.99C976.07 867.984 976.888 865.334 978.526 863.042C980.163 860.75 982.412 858.952 985.273 857.65C988.134 856.348 991.395 855.697 995.057 855.697C1000.06 855.697 1004.06 856.831 1007.06 859.1C1010.06 861.369 1012.21 864.48 1013.52 868.434Z"/>
<path clip-path="url(#TextBounds_2)" d="M1071.52 912.231C1068.23 912.231 1065.22 911.588 1062.5 910.302C1059.78 909.015 1057.61 907.145 1056 904.691C1054.39 902.237 1053.58 899.258 1053.58 895.754C1053.58 893.055 1054.09 890.784 1055.11 888.942C1056.12 887.099 1057.57 885.586 1059.44 884.402C1061.31 883.218 1063.52 882.283 1066.09 881.597C1068.65 880.91 1071.47 880.373 1074.55 879.987C1077.6 879.608 1080.19 879.281 1082.31 879.004C1084.43 878.728 1086.04 878.282 1087.15 877.666C1088.25 877.051 1088.81 876.057 1088.81 874.684L1088.81 873.405C1088.81 869.673 1087.7 866.735 1085.49 864.593C1083.28 862.45 1080.11 861.379 1075.97 861.379C1072.03 861.379 1068.82 862.245 1066.35 863.977C1063.88 865.709 1062.15 867.747 1061.16 870.091L1055.14 867.913C1056.37 864.946 1058.08 862.566 1060.26 860.775C1062.43 858.984 1064.87 857.69 1067.57 856.893C1070.27 856.096 1073.01 855.697 1075.79 855.697C1077.88 855.697 1080.05 855.971 1082.3 856.52C1084.56 857.068 1086.65 858.011 1088.59 859.349C1090.53 860.686 1092.11 862.543 1093.33 864.918C1094.54 867.294 1095.15 870.312 1095.15 873.973L1095.15 911L1088.81 911L1088.81 902.382L1088.43 902.382C1087.67 903.992 1086.55 905.553 1085.06 907.064C1083.57 908.575 1081.7 909.814 1079.45 910.781C1077.2 911.748 1074.55 912.231 1071.52 912.231ZM1072.38 906.455C1075.74 906.455 1078.65 905.711 1081.11 904.223C1083.57 902.736 1085.47 900.751 1086.81 898.269C1088.14 895.787 1088.81 893.055 1088.81 890.072L1088.81 882.212C1088.35 882.662 1087.57 883.064 1086.46 883.419C1085.35 883.774 1084.08 884.084 1082.66 884.349C1081.23 884.613 1079.81 884.84 1078.38 885.03C1076.95 885.219 1075.68 885.385 1074.55 885.527C1071.48 885.905 1068.85 886.497 1066.66 887.302C1064.47 888.107 1062.8 889.216 1061.65 890.628C1060.5 892.041 1059.92 893.844 1059.92 896.038C1059.92 899.352 1061.11 901.917 1063.47 903.732C1065.83 905.547 1068.8 906.455 1072.38 906.455Z"/>
<path clip-path="url(#TextBounds_2)" d="M1111.91 911L1111.91 856.455L1118.07 856.455L1118.07 864.835L1118.54 864.835C1119.63 862.089 1121.53 859.871 1124.24 858.183C1126.95 856.494 1130.02 855.649 1133.46 855.649C1133.96 855.649 1134.54 855.657 1135.18 855.673C1135.83 855.689 1136.36 855.713 1136.77 855.744L1136.77 862.184C1136.49 862.137 1135.99 862.062 1135.29 861.959C1134.59 861.856 1133.82 861.805 1132.98 861.805C1130.14 861.805 1127.61 862.405 1125.4 863.604C1123.19 864.804 1121.44 866.457 1120.17 868.564C1118.89 870.671 1118.26 873.074 1118.26 875.773L1118.26 911L1111.91 911Z"/>
<path clip-path="url(#TextBounds_2)" d="M1167.93 912.136C1162.84 912.136 1158.43 910.945 1154.71 908.562C1150.99 906.179 1148.12 902.876 1146.1 898.654C1144.08 894.432 1143.07 889.567 1143.07 884.059C1143.07 878.551 1144.08 873.662 1146.1 869.393C1148.13 865.123 1150.94 861.773 1154.53 859.343C1158.12 856.912 1162.27 855.697 1166.98 855.697C1169.93 855.697 1172.78 856.238 1175.53 857.319C1178.28 858.4 1180.75 860.045 1182.94 862.255C1185.12 864.464 1186.85 867.248 1188.13 870.606C1189.4 873.963 1190.04 877.927 1190.04 882.496L1190.04 885.621L1147.42 885.621L1147.42 880.034L1183.6 880.034C1183.6 876.523 1182.89 873.368 1181.48 870.57C1180.07 867.773 1178.11 865.557 1175.61 863.924C1173.11 862.291 1170.23 861.474 1166.98 861.474C1163.51 861.474 1160.46 862.393 1157.83 864.232C1155.2 866.07 1153.15 868.505 1151.67 871.535C1150.2 874.566 1149.44 877.888 1149.41 881.502L1149.41 884.816C1149.41 889.149 1150.17 892.931 1151.68 896.162C1153.19 899.394 1155.33 901.901 1158.1 903.685C1160.87 905.468 1164.15 906.36 1167.93 906.36C1170.51 906.36 1172.78 905.953 1174.74 905.141C1176.69 904.328 1178.33 903.243 1179.66 901.886C1180.99 900.528 1182 899.037 1182.7 897.411L1188.71 899.352C1187.88 901.641 1186.52 903.756 1184.64 905.697C1182.76 907.638 1180.42 909.197 1177.61 910.373C1174.8 911.548 1171.57 912.136 1167.93 912.136Z"/>
<path clip-path="url(#TextBounds_2)" d="M1238.38 876.909L1238.38 911L1232.04 911L1232.04 838.273L1238.38 838.273L1238.38 865.024L1238.95 865.024C1240.23 862.199 1242.21 859.946 1244.9 858.266C1247.58 856.585 1250.98 855.744 1255.09 855.744C1258.79 855.744 1262.03 856.502 1264.82 858.017C1267.62 859.532 1269.8 861.769 1271.36 864.729C1272.92 867.688 1273.7 871.338 1273.7 875.678L1273.7 911L1267.36 911L1267.36 876.057C1267.36 871.559 1266.11 868.012 1263.61 865.415C1261.1 862.819 1257.73 861.521 1253.48 861.521C1250.58 861.521 1247.99 862.14 1245.71 863.379C1243.44 864.618 1241.65 866.39 1240.34 868.694C1239.03 870.998 1238.38 873.737 1238.38 876.909Z"/>
<path clip-path="url(#TextBounds_2)" d="M1305.62 912.231C1302.32 912.231 1299.31 911.588 1296.59 910.302C1293.87 909.015 1291.7 907.145 1290.09 904.691C1288.48 902.237 1287.67 899.258 1287.67 895.754C1287.67 893.055 1288.18 890.784 1289.2 888.942C1290.22 887.099 1291.66 885.586 1293.53 884.402C1295.4 883.218 1297.62 882.283 1300.18 881.597C1302.74 880.91 1305.56 880.373 1308.65 879.987C1311.69 879.608 1314.28 879.281 1316.4 879.004C1318.52 878.728 1320.14 878.282 1321.24 877.666C1322.35 877.051 1322.9 876.057 1322.9 874.684L1322.9 873.405C1322.9 869.673 1321.79 866.735 1319.58 864.593C1317.37 862.45 1314.2 861.379 1310.07 861.379C1306.12 861.379 1302.91 862.245 1300.44 863.977C1297.97 865.709 1296.24 867.747 1295.25 870.091L1289.23 867.913C1290.46 864.946 1292.17 862.566 1294.35 860.775C1296.52 858.984 1298.96 857.69 1301.66 856.893C1304.36 856.096 1307.1 855.697 1309.88 855.697C1311.97 855.697 1314.14 855.971 1316.39 856.52C1318.65 857.068 1320.74 858.011 1322.68 859.349C1324.63 860.686 1326.2 862.543 1327.42 864.918C1328.64 867.294 1329.24 870.312 1329.24 873.973L1329.24 911L1322.9 911L1322.9 902.382L1322.52 902.382C1321.76 903.992 1320.64 905.553 1319.15 907.064C1317.66 908.575 1315.79 909.814 1313.54 910.781C1311.29 911.748 1308.65 912.231 1305.62 912.231ZM1306.47 906.455C1309.83 906.455 1312.74 905.711 1315.2 904.223C1317.67 902.736 1319.56 900.751 1320.9 898.269C1322.23 895.787 1322.9 893.055 1322.9 890.072L1322.9 882.212C1322.44 882.662 1321.66 883.064 1320.55 883.419C1319.44 883.774 1318.17 884.084 1316.75 884.349C1315.32 884.613 1313.9 884.84 1312.47 885.03C1311.04 885.219 1309.77 885.385 1308.65 885.527C1305.57 885.905 1302.94 886.497 1300.75 887.302C1298.56 888.107 1296.9 889.216 1295.74 890.628C1294.59 892.041 1294.02 893.844 1294.02 896.038C1294.02 899.352 1295.2 901.917 1297.56 903.732C1299.92 905.547 1302.89 906.455 1306.47 906.455Z"/>
<path clip-path="url(#TextBounds_2)" d="M1346 911L1346 856.455L1352.16 856.455L1352.16 864.835L1352.63 864.835C1353.72 862.089 1355.62 859.871 1358.33 858.183C1361.04 856.494 1364.11 855.649 1367.55 855.649C1368.05 855.649 1368.63 855.657 1369.28 855.673C1369.92 855.689 1370.45 855.713 1370.86 855.744L1370.86 862.184C1370.58 862.137 1370.08 862.062 1369.38 861.959C1368.68 861.856 1367.91 861.805 1367.07 861.805C1364.23 861.805 1361.71 862.405 1359.49 863.604C1357.28 864.804 1355.53 866.457 1354.26 868.564C1352.99 870.671 1352.35 873.074 1352.35 875.773L1352.35 911L1346 911Z"/>
<path clip-path="url(#TextBounds_2)" d="M1399.6 912.136C1395.14 912.136 1391.22 910.955 1387.85 908.591C1384.48 906.228 1381.85 902.927 1379.98 898.689C1378.1 894.452 1377.16 889.512 1377.16 883.869C1377.16 878.266 1378.1 873.35 1379.99 869.12C1381.87 864.89 1384.51 861.596 1387.9 859.236C1391.28 856.877 1395.21 855.697 1399.7 855.697C1403.03 855.697 1405.79 856.287 1407.98 857.467C1410.18 858.646 1411.94 860.098 1413.27 861.823C1414.61 863.547 1415.64 865.23 1416.36 866.871L1416.93 866.871L1416.93 838.273L1423.28 838.273L1423.28 911L1417.12 911L1417.12 900.868L1416.36 900.868C1415.62 902.533 1414.58 904.235 1413.23 905.975C1411.88 907.715 1410.1 909.177 1407.88 910.361C1405.67 911.545 1402.91 912.136 1399.6 912.136ZM1400.36 906.36C1403.89 906.36 1406.89 905.391 1409.37 903.454C1411.86 901.517 1413.75 898.849 1415.06 895.452C1416.37 892.055 1417.03 888.162 1417.03 883.774C1417.03 879.418 1416.38 875.565 1415.08 872.215C1413.78 868.866 1411.89 866.238 1409.41 864.332C1406.93 862.427 1403.91 861.474 1400.36 861.474C1396.71 861.474 1393.64 862.458 1391.13 864.427C1388.63 866.396 1386.73 869.063 1385.44 872.429C1384.15 875.794 1383.5 879.576 1383.5 883.774C1383.5 888.004 1384.16 891.826 1385.46 895.239C1386.76 898.652 1388.66 901.358 1391.17 903.359C1393.67 905.359 1396.74 906.36 1400.36 906.36Z"/>
<path clip-path="url(#TextBounds_2)" d="M1490.89 856.455L1490.89 861.947L1464.85 861.947L1464.85 856.455L1490.89 856.455ZM1472.99 843.386L1479.34 843.386L1479.34 896.748C1479.34 899.037 1479.73 900.826 1480.51 902.116C1481.29 903.406 1482.31 904.318 1483.56 904.85C1484.82 905.383 1486.16 905.649 1487.58 905.649C1488.42 905.649 1489.14 905.594 1489.72 905.484C1490.31 905.373 1490.83 905.255 1491.27 905.128L1492.64 910.858C1492.03 911.087 1491.26 911.302 1490.36 911.503C1489.45 911.704 1488.33 911.805 1487.01 911.805C1484.69 911.805 1482.46 911.296 1480.31 910.278C1478.17 909.26 1476.42 907.745 1475.05 905.733C1473.68 903.72 1472.99 901.23 1472.99 898.263L1472.99 843.386Z"/>
<path clip-path="url(#TextBounds_2)" d="M1525.88 912.136C1521.17 912.136 1517.01 910.943 1513.4 908.556C1509.8 906.168 1506.97 902.858 1504.93 898.624C1502.9 894.391 1501.88 889.504 1501.88 883.964C1501.88 878.385 1502.9 873.472 1504.93 869.227C1506.97 864.981 1509.8 861.665 1513.4 859.278C1517.01 856.891 1521.17 855.697 1525.88 855.697C1530.59 855.697 1534.75 856.893 1538.35 859.284C1541.95 861.675 1544.78 864.993 1546.82 869.239C1548.86 873.484 1549.89 878.393 1549.89 883.964C1549.89 889.504 1548.87 894.391 1546.83 898.624C1544.79 902.858 1541.96 906.168 1538.36 908.556C1534.75 910.943 1530.59 912.136 1525.88 912.136ZM1525.88 906.36C1529.66 906.36 1532.87 905.342 1535.5 903.306C1538.13 901.27 1540.13 898.555 1541.49 895.162C1542.86 891.769 1543.54 888.036 1543.54 883.964C1543.54 879.892 1542.86 876.154 1541.49 872.748C1540.12 869.343 1538.12 866.613 1535.49 864.557C1532.86 862.502 1529.66 861.474 1525.88 861.474C1522.11 861.474 1518.91 862.502 1516.28 864.557C1513.64 866.613 1511.64 869.343 1510.27 872.748C1508.9 876.154 1508.22 879.892 1508.22 883.964C1508.22 888.036 1508.9 891.769 1510.27 895.162C1511.63 898.555 1513.63 901.27 1516.26 903.306C1518.89 905.342 1522.1 906.36 1525.88 906.36Z"/>
<path clip-path="url(#TextBounds_2)" d="M1604.01 911L1587.53 856.455L1594.2 856.455L1607.13 901.435L1607.6 901.435L1620.48 856.455L1627.21 856.455L1639.99 901.341L1640.46 901.341L1653.39 856.455L1660.07 856.455L1643.59 911L1637.06 911L1624.13 866.303L1623.47 866.303L1610.54 911L1604.01 911Z"/>
<path clip-path="url(#TextBounds_2)" d="M1691.74 912.136C1687.03 912.136 1682.87 910.943 1679.27 908.556C1675.66 906.168 1672.84 902.858 1670.8 898.624C1668.76 894.391 1667.74 889.504 1667.74 883.964C1667.74 878.385 1668.76 873.472 1670.8 869.227C1672.84 864.981 1675.66 861.665 1679.27 859.278C1682.87 856.891 1687.03 855.697 1691.74 855.697C1696.45 855.697 1700.61 856.893 1704.21 859.284C1707.82 861.675 1710.64 864.993 1712.68 869.239C1714.73 873.484 1715.75 878.393 1715.75 883.964C1715.75 889.504 1714.73 894.391 1712.69 898.624C1710.65 902.858 1707.83 906.168 1704.22 908.556C1700.61 910.943 1696.45 912.136 1691.74 912.136ZM1691.74 906.36C1695.52 906.36 1698.73 905.342 1701.36 903.306C1703.99 901.27 1705.99 898.555 1707.36 895.162C1708.72 891.769 1709.4 888.036 1709.4 883.964C1709.4 879.892 1708.72 876.154 1707.35 872.748C1705.98 869.343 1703.98 866.613 1701.35 864.557C1698.73 862.502 1695.52 861.474 1691.74 861.474C1687.97 861.474 1684.77 862.502 1682.14 864.557C1679.5 866.613 1677.5 869.343 1676.14 872.748C1674.77 876.154 1674.08 879.892 1674.08 883.964C1674.08 888.036 1674.76 891.769 1676.13 895.162C1677.49 898.555 1679.49 901.27 1682.12 903.306C1684.76 905.342 1687.96 906.36 1691.74 906.36Z"/>
<path clip-path="url(#TextBounds_2)" d="M1729.62 911L1729.62 856.455L1735.78 856.455L1735.78 864.835L1736.25 864.835C1737.34 862.089 1739.24 859.871 1741.95 858.183C1744.66 856.494 1747.73 855.649 1751.16 855.649C1751.67 855.649 1752.25 855.657 1752.89 855.673C1753.54 855.689 1754.07 855.713 1754.48 855.744L1754.48 862.184C1754.2 862.137 1753.7 862.062 1753 861.959C1752.3 861.856 1751.53 861.805 1750.69 861.805C1747.85 861.805 1745.32 862.405 1743.11 863.604C1740.9 864.804 1739.15 866.457 1737.88 868.564C1736.6 870.671 1735.97 873.074 1735.97 875.773L1735.97 911L1729.62 911Z"/>
<path clip-path="url(#TextBounds_2)" d="M1771.05 890.403L1770.96 882.118L1772.38 882.118L1797.95 856.455L1805.95 856.455L1780.71 881.739L1780.14 881.834L1771.05 890.403ZM1765.28 911L1765.28 838.273L1771.62 838.273L1771.62 911L1765.28 911ZM1799.27 911L1777.11 882.97L1781.66 878.614L1807.37 911L1799.27 911Z"/>
<path clip-path="url(#TextBounds_2)" d="M1858.03 911L1841.55 856.455L1848.23 856.455L1861.16 901.435L1861.63 901.435L1874.51 856.455L1881.23 856.455L1894.02 901.341L1894.49 901.341L1907.42 856.455L1914.09 856.455L1897.61 911L1891.08 911L1878.15 866.303L1877.49 866.303L1864.56 911L1858.03 911Z"/>
<path clip-path="url(#TextBounds_2)" d="M1926.5 911L1926.5 856.455L1932.84 856.455L1932.84 911L1926.5 911ZM1929.72 847.08C1928.42 847.08 1927.31 846.634 1926.38 845.744C1925.45 844.854 1924.98 843.784 1924.98 842.534C1924.98 841.284 1925.45 840.214 1926.38 839.324C1927.31 838.434 1928.42 837.989 1929.71 837.989C1931.01 837.989 1932.12 838.434 1933.05 839.324C1933.99 840.214 1934.45 841.284 1934.45 842.534C1934.45 843.784 1933.99 844.854 1933.06 845.744C1932.13 846.634 1931.01 847.08 1929.72 847.08Z"/>
<path clip-path="url(#TextBounds_2)" d="M1971.1 856.455L1971.1 861.947L1945.06 861.947L1945.06 856.455L1971.1 856.455ZM1953.2 843.386L1959.55 843.386L1959.55 896.748C1959.55 899.037 1959.94 900.826 1960.72 902.116C1961.5 903.406 1962.52 904.318 1963.77 904.85C1965.03 905.383 1966.36 905.649 1967.78 905.649C1968.63 905.649 1969.35 905.594 1969.93 905.484C1970.52 905.373 1971.04 905.255 1971.48 905.128L1972.85 910.858C1972.24 911.087 1971.47 911.302 1970.57 911.503C1969.66 911.704 1968.54 911.805 1967.22 911.805C1964.9 911.805 1962.67 911.296 1960.52 910.278C1958.38 909.26 1956.62 907.745 1955.26 905.733C1953.89 903.72 1953.2 901.23 1953.2 898.263L1953.2 843.386Z"/>
<path clip-path="url(#TextBounds_2)" d="M1992.93 876.909L1992.93 911L1986.58 911L1986.58 838.273L1992.93 838.273L1992.93 865.024L1993.5 865.024C1994.77 862.199 1996.76 859.946 1999.44 858.266C2002.13 856.585 2005.53 855.744 2009.64 855.744C2013.33 855.744 2016.58 856.502 2019.37 858.017C2022.16 859.532 2024.34 861.769 2025.9 864.729C2027.47 867.688 2028.25 871.338 2028.25 875.678L2028.25 911L2021.9 911L2021.9 876.057C2021.9 871.559 2020.65 868.012 2018.15 865.415C2015.65 862.819 2012.28 861.521 2008.03 861.521C2005.13 861.521 2002.54 862.14 2000.26 863.379C1997.98 864.618 1996.19 866.39 1994.89 868.694C1993.58 870.998 1992.93 873.737 1992.93 876.909Z"/>
</g>
</g>
</g>
</g>
</svg>
