<?xml version="1.0" encoding="UTF-8" standalone="no"?>
<!DOCTYPE svg PUBLIC "-//W3C//DTD SVG 1.1//EN" "http://www.w3.org/Graphics/SVG/1.1/DTD/svg11.dtd">
<!-- Created with Vectornator (http://vectornator.io/) -->
<svg height="100%" stroke-miterlimit="10" style="fill-rule:nonzero;clip-rule:evenodd;stroke-linecap:round;stroke-linejoin:round;" version="1.1" viewBox="0 0 1024 1024" width="100%" xml:space="preserve" xmlns="http://www.w3.org/2000/svg" xmlns:vectornator="http://vectornator.io" xmlns:xlink="http://www.w3.org/1999/xlink">
<defs>
<filter color-interpolation-filters="sRGB" filterUnits="userSpaceOnUse" height="417.386" id="Filter" width="530.071" x="259.021" y="254.588">
<feDropShadow dx="-0" dy="0" flood-color="#000000" flood-opacity="0.492673" in="SourceGraphic" result="Shadow" stdDeviation="12"/>
</filter>
</defs>
<g id="Layer-1" vectornator:layerName="Layer 1">
<path d="M0 512C0 229.23 229.23 0 512 0C794.77 0 1024 229.23 1024 512C1024 794.77 794.77 1024 512 1024C229.23 1024 0 794.77 0 512Z" fill="#0b0b0b" fill-rule="nonzero" opacity="1" stroke="none"/>
<g opacity="1">
<path d="M498.996 318.968L498.996 440.597L394.742 440.597L394.742 672.995C394.742 720.054 395.738 747.475 397.729 755.258C399.72 763.041 404.245 769.466 411.303 774.534C418.362 779.602 426.959 782.136 437.095 782.136C451.213 782.136 569.774 765.976 596.561 756.202L475.246 901.349C475.246 901.349 416.633 908.651 390.941 908.651C363.43 908.651 338.634 904.036 316.552 894.805C294.471 885.574 278.272 873.629 267.955 858.968C257.638 844.307 250.489 824.488 246.507 799.511C243.249 781.774 241.62 745.937 241.62 692L241.62 440.597L171.575 440.597L171.575 318.968L241.62 318.968L241.62 204.398L394.742 115.349L394.742 318.968L498.996 318.968Z" fill="#ffffff" fill-rule="nonzero" opacity="1" stroke="none"/>
<g opacity="1">
<path d="M695.967 638.926C661.62 639.976 483.008 649.51 460.892 647.76C427.649 645.128 402.852 640.824 386.499 634.848C334.649 615.848 301.934 579.501 288.357 525.806C276.111 477.376 284.943 431.83 314.855 389.168C344.766 346.507 399.905 315.015 480.271 294.693C556.777 275.348 616.78 273.43 660.281 288.94C703.782 304.451 738.719 334.822 765.092 380.054L632.113 441.123C620.645 420.873 605.112 407.065 585.514 399.699C565.916 392.333 540.675 392.555 509.792 400.364C470.837 410.214 444.312 422.709 430.218 437.848C420.94 448.408 417.854 459.83 420.96 472.113C423.622 482.641 430.798 490.348 442.488 495.233C447.48 497.27 455.831 498.884 467.541 500.076C483.872 501.739 679.044 522.653 699.413 522.158C782.726 520.134 723.094 638.414 695.967 638.926Z" fill="#ffffff" fill-rule="nonzero" filter="url(#Filter)" stroke="none" vectornator:shadowAngle="-3.14159" vectornator:shadowColor="#000000" vectornator:shadowOffset="0" vectornator:shadowOpacity="0.492673" vectornator:shadowRadius="24"/>
<path d="M484.81 777.192C484.81 777.192 585.787 759.535 617.147 751.606C655.4 741.933 678.367 745.123 694.119 726.205C704.619 713.095 707.784 698.293 703.613 681.798C700.774 670.568 694.912 662.156 686.03 656.561C676.885 651.405 658.749 649.084 631.622 649.596C505.645 653.447 423.937 648.531 386.499 634.848C334.649 615.848 301.934 579.501 288.357 525.806C276.111 477.376 284.943 431.83 314.855 389.168C344.766 346.507 399.905 315.015 480.271 294.693C556.777 275.348 616.78 273.43 660.281 288.94C703.782 304.451 738.719 334.822 765.092 380.054L632.113 441.123C620.645 420.873 605.112 407.065 585.514 399.699C565.916 392.333 540.675 392.555 509.792 400.364C470.837 410.214 444.312 422.709 430.218 437.848C420.94 448.408 417.854 459.83 420.96 472.113C423.622 482.641 430.798 490.348 442.488 495.233C458.309 501.687 507.876 503.902 591.189 501.878C674.502 499.854 735.059 507.878 772.859 525.95C810.398 544.461 835.113 577.23 847.005 624.257C859.961 675.495 849.69 724.952 816.193 772.627C782.695 820.303 724.009 854.745 640.133 875.955C570.179 893.644 439.52 904.96 439.52 904.96L476.16 818.277L484.81 777.192Z" fill="#ffffff" fill-rule="nonzero" opacity="1" stroke="none"/>
</g>
</g>
</g>
</svg>
