<?xml version="1.0" encoding="UTF-8" standalone="no"?>
<!DOCTYPE svg PUBLIC "-//W3C//DTD SVG 1.1//EN" "http://www.w3.org/Graphics/SVG/1.1/DTD/svg11.dtd">
<!-- Created with Vectornator (http://vectornator.io/) -->
<svg height="100%" stroke-miterlimit="10" style="fill-rule:nonzero;clip-rule:evenodd;stroke-linecap:round;stroke-linejoin:round;" version="1.1" viewBox="0 0 1024 1024" width="100%" xml:space="preserve" xmlns="http://www.w3.org/2000/svg" xmlns:vectornator="http://vectornator.io" xmlns:xlink="http://www.w3.org/1999/xlink">
<defs/>
<g id="Layer-1" vectornator:layerName="Layer 1">
<g opacity="1">
<path d="M496.413 280.635L496.413 426.418L371.456 426.418L371.456 704.967C371.456 761.371 372.649 794.238 375.036 803.566C377.422 812.894 382.845 820.596 391.306 826.67C399.767 832.744 410.071 835.781 422.22 835.781C439.141 835.781 581.247 816.412 613.354 804.698L467.947 978.67C467.947 978.67 397.694 987.422 366.9 987.422C333.926 987.422 304.205 981.89 277.739 970.826C251.272 959.762 231.856 945.444 219.49 927.872C207.125 910.3 198.556 886.545 193.783 856.608C189.878 835.348 187.926 792.394 187.926 727.746L187.926 426.418L103.97 426.418L103.97 280.635L187.926 280.635L187.926 143.312L371.456 36.5781L371.456 280.635L496.413 280.635Z" fill="#000000" fill-rule="nonzero" opacity="1" stroke="none"/>
<g opacity="1">
<path d="M732.501 664.133C691.333 665.391 477.251 676.818 450.743 674.72C410.898 671.566 381.176 666.407 361.576 659.244C299.429 636.471 260.218 592.906 243.944 528.548C229.266 470.5 239.852 415.909 275.704 364.775C311.555 313.642 377.644 275.896 473.97 251.538C565.669 228.351 637.588 226.053 689.728 244.643C741.868 263.234 783.743 299.636 815.353 353.851L655.967 427.047C642.221 402.776 623.603 386.226 600.113 377.397C576.623 368.568 546.369 368.834 509.353 378.194C462.662 390.001 430.87 404.976 413.977 423.122C402.856 435.779 399.158 449.47 402.88 464.192C406.071 476.811 414.673 486.048 428.684 491.903C434.667 494.344 444.676 496.279 458.712 497.708C478.286 499.701 712.217 524.769 736.632 524.175C836.489 521.749 765.015 663.519 732.501 664.133Z" fill="#000000" fill-rule="nonzero" opacity="1" stroke="none"/>
<path d="M479.411 829.856C479.411 829.856 600.441 808.693 638.028 799.189C683.878 787.595 711.406 791.419 730.286 768.744C742.871 753.03 746.665 735.289 741.665 715.518C738.262 702.058 731.237 691.975 720.59 685.269C709.63 679.09 687.892 676.307 655.377 676.921C504.383 681.537 406.449 675.644 361.576 659.244C299.429 636.471 260.218 592.906 243.944 528.548C229.266 470.5 239.852 415.909 275.704 364.775C311.555 313.642 377.644 275.896 473.97 251.538C565.669 228.351 637.588 226.053 689.728 244.643C741.868 263.234 783.743 299.636 815.353 353.851L655.967 427.047C642.221 402.776 623.603 386.226 600.113 377.397C576.623 368.568 546.369 368.834 509.353 378.194C462.662 390.001 430.87 404.976 413.977 423.122C402.856 435.779 399.158 449.47 402.88 464.192C406.071 476.811 414.673 486.048 428.684 491.903C447.647 499.639 507.057 502.294 606.915 499.868C706.773 497.442 779.355 507.059 824.663 528.72C869.657 550.908 899.28 590.184 913.533 646.55C929.062 707.963 916.752 767.242 876.602 824.385C836.453 881.529 766.111 922.811 665.579 948.232C581.732 969.434 425.127 982.997 425.127 982.997L469.043 879.1L479.411 829.856Z" fill="#000000" fill-rule="nonzero" opacity="1" stroke="none"/>
</g>
</g>
</g>
</svg>
