<?xml version="1.0" encoding="UTF-8" standalone="no"?>
<!DOCTYPE svg PUBLIC "-//W3C//DTD SVG 1.1//EN" "http://www.w3.org/Graphics/SVG/1.1/DTD/svg11.dtd">
<!-- Created with Vectornator (http://vectornator.io/) -->
<svg height="100%" stroke-miterlimit="10" style="fill-rule:nonzero;clip-rule:evenodd;stroke-linecap:round;stroke-linejoin:round;" version="1.1" viewBox="0 0 2560 1440" width="100%" xml:space="preserve" xmlns="http://www.w3.org/2000/svg" xmlns:vectornator="http://vectornator.io" xmlns:xlink="http://www.w3.org/1999/xlink">
<defs>
<linearGradient gradientTransform="matrix(0.95215 0 0 0.95215 91.1942 -58.194)" gradientUnits="userSpaceOnUse" id="LinearGradient" x1="453.08" x2="455.24" y1="977.303" y2="546.846">
<stop offset="0" stop-color="#5296ad"/>
<stop offset="1" stop-color="#000000"/>
</linearGradient>
<linearGradient gradientTransform="matrix(0.95215 0 0 0.95215 1651.19 133.063)" gradientUnits="userSpaceOnUse" id="LinearGradient_2" x1="453.08" x2="455.24" y1="977.303" y2="546.846">
<stop offset="0" stop-color="#c870ba"/>
<stop offset="1" stop-color="#000000"/>
</linearGradient>
<linearGradient gradientTransform="matrix(0.95215 0 0 0.95215 1161.19 -58.194)" gradientUnits="userSpaceOnUse" id="LinearGradient_3" x1="453.08" x2="455.24" y1="977.303" y2="546.846">
<stop offset="0" stop-color="#1d4629"/>
<stop offset="1" stop-color="#000000"/>
</linearGradient>
<linearGradient gradientTransform="matrix(0.95215 0 0 0.95215 581.194 133.063)" gradientUnits="userSpaceOnUse" id="LinearGradient_4" x1="453.08" x2="455.24" y1="977.303" y2="546.846">
<stop offset="0" stop-color="#c2cc7b"/>
<stop offset="1" stop-color="#000000"/>
</linearGradient>
</defs>
<clipPath id="ArtboardFrame">
<rect height="1440" width="2560" x="0" y="0"/>
</clipPath>
<g clip-path="url(#ArtboardFrame)" id="iMacs" vectornator:layerName="iMacs">
<path d="M-260.178 299.238L2666.87-272.859L2788.06 347.224L-138.981 919.322L-260.178 299.238Z" fill="#828282" fill-rule="nonzero" opacity="1" stroke="#bababa" stroke-linecap="butt" stroke-linejoin="round" stroke-width="3"/>
<path d="M-134.051 667.605L2792.99 95.5075L2914.19 715.591L-12.8546 1287.69L-134.051 667.605Z" fill="#686868" fill-rule="nonzero" opacity="1" stroke="#bababa" stroke-linecap="butt" stroke-linejoin="round" stroke-width="3"/>
<path d="M-143.818 1133.85L2783.23 561.753L2904.42 1181.84L-22.6211 1753.93L-143.818 1133.85Z" fill="#515151" fill-rule="nonzero" opacity="1" stroke="#bababa" stroke-linecap="butt" stroke-linejoin="round" stroke-width="3"/>
<path d="M207.173 1459.21L3134.22 887.113L3255.41 1507.2L328.37 2079.29L207.173 1459.21Z" fill="#404040" fill-rule="nonzero" opacity="1" stroke="#bababa" stroke-linecap="butt" stroke-linejoin="round" stroke-width="3"/>
<path d="M-996.887-74.4484L1930.16-646.546L2051.35-26.4625L-875.69 545.635L-996.887-74.4484Z" fill="#9d9d9d" fill-rule="nonzero" opacity="1" stroke="#bababa" stroke-linecap="butt" stroke-linejoin="round" stroke-width="3"/>
<g opacity="1">
<g opacity="1">
<path d="M460.637 707.14L585.246 707.14L585.246 874.587L460.637 874.587L460.637 707.14Z" fill="url(#LinearGradient)" fill-rule="nonzero" opacity="1" stroke="none"/>
<path d="M447.051 857.958L598.832 857.958C604.305 857.958 608.741 862.394 608.741 867.867L608.741 867.867C608.741 873.339 604.305 877.776 598.832 877.776L447.051 877.776C441.579 877.776 437.142 873.339 437.142 867.867L437.142 867.867C437.142 862.394 441.579 857.958 447.051 857.958Z" fill="#5296ad" fill-rule="nonzero" opacity="1" stroke="none"/>
</g>
<path d="M156.155 232.721L889.729 232.721C898.651 232.721 905.884 239.954 905.884 248.876L905.884 729.85C905.884 738.773 898.651 746.005 889.729 746.005L156.155 746.005C147.233 746.005 140 738.773 140 729.85L140 248.876C140 239.954 147.233 232.721 156.155 232.721Z" fill="#5296ad" fill-rule="nonzero" opacity="1" stroke="none"/>
<path d="M156.155 185.791L889.729 185.791C898.651 185.791 905.884 192.955 905.884 201.792L905.884 678.18C905.884 687.017 898.651 694.181 889.729 694.181L156.155 694.181C147.233 694.181 140 687.017 140 678.18L140 201.792C140 192.955 147.233 185.791 156.155 185.791Z" fill="#ffffff" fill-rule="nonzero" opacity="1" stroke="none"/>
<path d="M169.139 198.254L876.744 198.254C885.35 198.254 892.327 205.063 892.327 213.462L892.327 666.241C892.327 674.64 885.35 681.449 876.744 681.449L169.139 681.449C160.533 681.449 153.556 674.64 153.556 666.241L153.556 213.462C153.556 205.063 160.533 198.254 169.139 198.254Z" fill="#595959" fill-rule="nonzero" opacity="1" stroke="none"/>
<path d="M520.589 191.041C520.589 189.741 521.642 188.688 522.942 188.688C524.241 188.688 525.295 189.741 525.295 191.041C525.295 192.34 524.241 193.394 522.942 193.394C521.642 193.394 520.589 192.34 520.589 191.041Z" fill="#000000" fill-rule="nonzero" opacity="1" stroke="none"/>
</g>
<g opacity="1">
<g opacity="1">
<path d="M2020.64 898.397L2145.25 898.397L2145.25 1065.84L2020.64 1065.84L2020.64 898.397Z" fill="url(#LinearGradient_2)" fill-rule="nonzero" opacity="1" stroke="none"/>
<path d="M2007.05 1049.21L2158.83 1049.21C2164.3 1049.21 2168.74 1053.65 2168.74 1059.12L2168.74 1059.12C2168.74 1064.6 2164.3 1069.03 2158.83 1069.03L2007.05 1069.03C2001.58 1069.03 1997.14 1064.6 1997.14 1059.12L1997.14 1059.12C1997.14 1053.65 2001.58 1049.21 2007.05 1049.21Z" fill="#c76ea6" fill-rule="nonzero" opacity="1" stroke="none"/>
</g>
<path d="M1716.15 423.978L2449.73 423.978C2458.65 423.978 2465.88 431.211 2465.88 440.133L2465.88 921.108C2465.88 930.03 2458.65 937.263 2449.73 937.263L1716.15 937.263C1707.23 937.263 1700 930.03 1700 921.108L1700 440.133C1700 431.211 1707.23 423.978 1716.15 423.978Z" fill="#c76ea6" fill-rule="nonzero" opacity="1" stroke="none"/>
<path d="M1716.15 377.048L2449.73 377.048C2458.65 377.048 2465.88 384.212 2465.88 393.049L2465.88 869.437C2465.88 878.274 2458.65 885.438 2449.73 885.438L1716.15 885.438C1707.23 885.438 1700 878.274 1700 869.437L1700 393.049C1700 384.212 1707.23 377.048 1716.15 377.048Z" fill="#ffffff" fill-rule="nonzero" opacity="1" stroke="none"/>
<path d="M1729.14 389.511L2436.74 389.511C2445.35 389.511 2452.33 396.32 2452.33 404.719L2452.33 857.498C2452.33 865.897 2445.35 872.706 2436.74 872.706L1729.14 872.706C1720.53 872.706 1713.56 865.897 1713.56 857.498L1713.56 404.719C1713.56 396.32 1720.53 389.511 1729.14 389.511Z" fill="#595959" fill-rule="nonzero" opacity="1" stroke="none"/>
<path d="M2080.59 382.298C2080.59 380.998 2081.64 379.945 2082.94 379.945C2084.24 379.945 2085.29 380.998 2085.29 382.298C2085.29 383.598 2084.24 384.651 2082.94 384.651C2081.64 384.651 2080.59 383.598 2080.59 382.298Z" fill="#000000" fill-rule="nonzero" opacity="1" stroke="none"/>
</g>
<g opacity="1">
<g opacity="1">
<path d="M1530.64 707.14L1655.25 707.14L1655.25 874.587L1530.64 874.587L1530.64 707.14Z" fill="url(#LinearGradient_3)" fill-rule="nonzero" opacity="1" stroke="none"/>
<path d="M1517.05 857.958L1668.83 857.958C1674.3 857.958 1678.74 862.394 1678.74 867.867L1678.74 867.867C1678.74 873.339 1674.3 877.776 1668.83 877.776L1517.05 877.776C1511.58 877.776 1507.14 873.339 1507.14 867.867L1507.14 867.867C1507.14 862.394 1511.58 857.958 1517.05 857.958Z" fill="#25592e" fill-rule="nonzero" opacity="1" stroke="none"/>
</g>
<path d="M1226.15 232.721L1959.73 232.721C1968.65 232.721 1975.88 239.954 1975.88 248.876L1975.88 729.85C1975.88 738.773 1968.65 746.005 1959.73 746.005L1226.15 746.005C1217.23 746.005 1210 738.773 1210 729.85L1210 248.876C1210 239.954 1217.23 232.721 1226.15 232.721Z" fill="#25592e" fill-rule="nonzero" opacity="1" stroke="none"/>
<path d="M1226.15 185.791L1959.73 185.791C1968.65 185.791 1975.88 192.955 1975.88 201.792L1975.88 678.18C1975.88 687.017 1968.65 694.181 1959.73 694.181L1226.15 694.181C1217.23 694.181 1210 687.017 1210 678.18L1210 201.792C1210 192.955 1217.23 185.791 1226.15 185.791Z" fill="#ffffff" fill-rule="nonzero" opacity="1" stroke="none"/>
<path d="M1239.14 198.254L1946.74 198.254C1955.35 198.254 1962.33 205.063 1962.33 213.462L1962.33 666.241C1962.33 674.64 1955.35 681.449 1946.74 681.449L1239.14 681.449C1230.53 681.449 1223.56 674.64 1223.56 666.241L1223.56 213.462C1223.56 205.063 1230.53 198.254 1239.14 198.254Z" fill="#595959" fill-rule="nonzero" opacity="1" stroke="none"/>
<path d="M1590.59 191.041C1590.59 189.741 1591.64 188.688 1592.94 188.688C1594.24 188.688 1595.29 189.741 1595.29 191.041C1595.29 192.34 1594.24 193.394 1592.94 193.394C1591.64 193.394 1590.59 192.34 1590.59 191.041Z" fill="#000000" fill-rule="nonzero" opacity="1" stroke="none"/>
</g>
<g opacity="1">
<g opacity="1">
<path d="M950.637 898.397L1075.25 898.397L1075.25 1065.84L950.637 1065.84L950.637 898.397Z" fill="url(#LinearGradient_4)" fill-rule="nonzero" opacity="1" stroke="none"/>
<path d="M937.051 1049.21L1088.83 1049.21C1094.3 1049.21 1098.74 1053.65 1098.74 1059.12L1098.74 1059.12C1098.74 1064.6 1094.3 1069.03 1088.83 1069.03L937.051 1069.03C931.579 1069.03 927.142 1064.6 927.142 1059.12L927.142 1059.12C927.142 1053.65 931.579 1049.21 937.051 1049.21Z" fill="#e0e07d" fill-rule="nonzero" opacity="1" stroke="none"/>
</g>
<path d="M646.155 423.978L1379.73 423.978C1388.65 423.978 1395.88 431.211 1395.88 440.133L1395.88 921.108C1395.88 930.03 1388.65 937.263 1379.73 937.263L646.155 937.263C637.233 937.263 630 930.03 630 921.108L630 440.133C630 431.211 637.233 423.978 646.155 423.978Z" fill="#e0e07d" fill-rule="nonzero" opacity="1" stroke="none"/>
<path d="M646.155 377.048L1379.73 377.048C1388.65 377.048 1395.88 384.212 1395.88 393.049L1395.88 869.437C1395.88 878.274 1388.65 885.438 1379.73 885.438L646.155 885.438C637.233 885.438 630 878.274 630 869.437L630 393.049C630 384.212 637.233 377.048 646.155 377.048Z" fill="#ffffff" fill-rule="nonzero" opacity="1" stroke="none"/>
<path d="M659.139 389.511L1366.74 389.511C1375.35 389.511 1382.33 396.32 1382.33 404.719L1382.33 857.498C1382.33 865.897 1375.35 872.706 1366.74 872.706L659.139 872.706C650.533 872.706 643.556 865.897 643.556 857.498L643.556 404.719C643.556 396.32 650.533 389.511 659.139 389.511Z" fill="#595959" fill-rule="nonzero" opacity="1" stroke="none"/>
<path d="M1010.59 382.298C1010.59 380.998 1011.64 379.945 1012.94 379.945C1014.24 379.945 1015.29 380.998 1015.29 382.298C1015.29 383.598 1014.24 384.651 1012.94 384.651C1011.64 384.651 1010.59 383.598 1010.59 382.298Z" fill="#000000" fill-rule="nonzero" opacity="1" stroke="none"/>
</g>
<g opacity="1">
<g opacity="1">
<path d="M845.511 463.682L949.776 504.9C963.005 510.13 969.409 525.298 964.08 538.78L866.39 785.896C861.06 799.378 846.015 806.067 832.786 800.837L728.521 759.62C715.292 754.39 708.888 739.221 714.218 725.74L811.908 478.624C817.238 465.142 832.282 458.452 845.511 463.682Z" fill="#595959" fill-rule="nonzero" opacity="1" stroke="none"/>
<path d="M844.658 457.182C830.106 451.429 813.557 458.787 807.694 473.617L707.72 726.511C701.857 741.341 708.902 758.027 723.454 763.779L833.64 807.338C848.192 813.091 864.741 805.732 870.604 790.903L970.578 538.008C976.44 523.178 969.396 506.493 954.844 500.74L844.658 457.182ZM845.517 463.678L871.327 473.881C872.225 474.405 872.838 474.877 872.715 475.188C872.142 476.636 869.615 483.03 869.615 483.03C869.087 484.365 870.027 485.981 871.731 486.654L893.124 495.111L893.543 495.277L914.937 503.734C916.64 504.408 918.431 503.872 918.959 502.537C918.959 502.537 921.487 496.142 922.059 494.695C922.182 494.384 922.951 494.458 923.965 494.69L949.775 504.893C963.004 510.123 969.408 525.291 964.078 538.773L866.384 785.9C861.054 799.382 846.01 806.071 832.78 800.842L728.523 759.627C715.294 754.397 708.89 739.228 714.219 725.747L811.914 478.619C817.243 465.138 832.288 458.448 845.517 463.678Z" fill="#000000" fill-rule="nonzero" opacity="1" stroke="none"/>
</g>
<path d="M759.42 766.577L805.482 784.787C806.185 785.065 806.53 785.86 806.252 786.563L806.252 786.563C805.974 787.266 805.179 787.611 804.476 787.333L758.414 769.123C757.711 768.845 757.366 768.05 757.644 767.347L757.644 767.347C757.922 766.644 758.717 766.3 759.42 766.577Z" fill="#f7f7f7" fill-rule="nonzero" opacity="0.500838" stroke="none"/>
</g>
<g opacity="1">
<g opacity="1">
<path d="M2150.84 223.01L2009.99 334.056C1992.12 348.145 1965.99 344.802 1951.63 326.59L1688.44-7.24478C1674.09-25.4574 1676.93-51.6434 1694.81-65.7329L1835.66-176.778C1853.53-190.867 1879.66-187.525 1894.02-169.312L2157.2 164.522C2171.56 182.735 2168.71 208.921 2150.84 223.01Z" fill="#595959" fill-rule="nonzero" opacity="1" stroke="none"/>
<path d="M2160.52 227.058C2180.18 211.56 2183.31 182.755 2167.52 162.721L1898.18-178.92C1882.38-198.954 1853.64-202.63 1833.98-187.132L1685.13-69.7804C1665.47-54.282 1662.34-25.4774 1678.13-5.44348L1947.47 336.197C1963.27 356.231 1992.01 359.908 2011.67 344.409L2160.52 227.058ZM2150.84 223.022L2115.98 250.51C2114.53 251.331 2113.38 251.798 2113.05 251.378C2111.51 249.422 2104.7 240.784 2104.7 240.784C2103.28 238.981 2100.29 238.982 2097.99 240.796L2069.09 263.581L2068.52 264.027L2039.62 286.812C2037.32 288.626 2036.62 291.534 2038.04 293.337C2038.04 293.337 2044.85 301.976 2046.39 303.931C2046.72 304.351 2046 305.356 2044.87 306.571L2010 334.059C1992.13 348.149 1966 344.806 1951.64 326.594L1688.44-7.25622C1674.09-25.4689 1676.93-51.6548 1694.8-65.7443L1835.65-176.782C1853.52-190.871 1879.65-187.529 1894.01-169.316L2157.2 164.534C2171.56 182.746 2168.71 208.932 2150.84 223.022Z" fill="#000000" fill-rule="nonzero" opacity="1" stroke="none"/>
</g>
<path d="M1801.19-139.643L1738.96-90.5847C1738.01-89.836 1736.63-89.9989 1735.89-90.9486L1735.89-90.9486C1735.14-91.8983 1735.3-93.2752 1736.25-94.0239L1798.48-143.082C1799.43-143.83 1800.8-143.668 1801.55-142.718L1801.55-142.718C1802.3-141.768 1802.14-140.391 1801.19-139.643Z" fill="#f7f7f7" fill-rule="nonzero" opacity="0.500838" stroke="none"/>
</g>
<g opacity="1">
<path d="M-111.064 1238.89L-33.0303 1138.57C-19.8928 1121.69 4.44805 1118.65 21.3366 1131.78L261.628 1318.7C278.516 1331.84 281.557 1356.18 268.42 1373.07L190.386 1473.38C177.249 1490.27 152.908 1493.31 136.02 1480.18L-104.272 1293.25C-121.16 1280.12-124.201 1255.78-111.064 1238.89Z" fill="#f7f7f7" fill-rule="nonzero" opacity="1" stroke="#000000" stroke-linecap="butt" stroke-linejoin="round" stroke-width="3"/>
<path d="M-95.8794 1286.45L16.8058 1141.59L253.235 1325.51L140.55 1470.37L-95.8794 1286.45Z" fill="#595959" fill-rule="nonzero" opacity="1" stroke="none"/>
<path d="M205.668 1420.87C200.126 1416.56 199.129 1408.57 203.439 1403.03C207.75 1397.49 215.736 1396.49 221.278 1400.8C226.819 1405.11 227.817 1413.1 223.506 1418.64C219.195 1424.18 211.209 1425.18 205.668 1420.87Z" fill="#e8e8e8" fill-rule="nonzero" opacity="1" stroke="#000000" stroke-linecap="butt" stroke-linejoin="round" stroke-width="5"/>
<g opacity="1">
<path d="M-61.5898 1210.54L-39.7516 1182.47C-39.1781 1181.73-38.1154 1181.6-37.378 1182.17L-37.378 1182.17C-36.6407 1182.74-36.508 1183.81-37.0815 1184.54L-58.9197 1212.62C-59.4933 1213.35-60.556 1213.49-61.2933 1212.91L-61.2933 1212.91C-62.0306 1212.34-62.1634 1211.28-61.5898 1210.54Z" fill="none" opacity="1" stroke="#000000" stroke-linecap="butt" stroke-linejoin="round" stroke-width="5"/>
<path d="M-69.8778 1223.95C-71.1959 1222.92-71.4332 1221.02-70.4078 1219.71C-69.3825 1218.39-67.4828 1218.15-66.1647 1219.18C-64.8466 1220.2-64.6093 1222.1-65.6346 1223.42C-66.6599 1224.74-68.5597 1224.97-69.8778 1223.95Z" fill="none" opacity="1" stroke="#000000" stroke-linecap="butt" stroke-linejoin="round" stroke-width="5"/>
</g>
</g>
<g opacity="1">
<path d="M1358.88 875.326L1603.94 1031.31C1645.2 1057.58 1657.35 1112.31 1631.09 1153.57L1257.44 1740.6C1231.17 1781.85 1176.44 1794.01 1135.18 1767.75L890.118 1611.76C848.859 1585.5 836.703 1530.76 862.964 1489.51L1236.62 902.479C1262.88 861.221 1317.62 849.064 1358.88 875.326Z" fill="#f7f7f7" fill-rule="nonzero" opacity="1" stroke="#000000" stroke-linecap="butt" stroke-linejoin="round" stroke-width="3"/>
<path d="M1253.91 920.113L1607.8 1145.37L1240.15 1722.96L886.259 1497.71L1253.91 920.113Z" fill="#595959" fill-rule="nonzero" opacity="1" stroke="none"/>
<path d="M1012.91 1635.24C1021.53 1621.7 1039.49 1617.71 1053.02 1626.33C1066.56 1634.94 1070.55 1652.9 1061.93 1666.44C1053.32 1679.98 1035.36 1683.97 1021.82 1675.35C1008.28 1666.73 1004.29 1648.77 1012.91 1635.24Z" fill="#e8e8e8" fill-rule="nonzero" opacity="1" stroke="#000000" stroke-linecap="butt" stroke-linejoin="round" stroke-width="5"/>
<g opacity="1">
<path d="M1434.03 981.809L1502.61 1025.46C1504.41 1026.61 1504.95 1029 1503.8 1030.8L1503.8 1030.8C1502.65 1032.6 1500.26 1033.13 1498.46 1031.99L1429.88 988.332C1428.08 987.185 1427.55 984.796 1428.69 982.994L1428.69 982.994C1429.84 981.193 1432.23 980.662 1434.03 981.809Z" fill="none" opacity="1" stroke="#000000" stroke-linecap="butt" stroke-linejoin="round" stroke-width="5"/>
<path d="M1401.73 965.834C1403.78 962.614 1408.06 961.665 1411.28 963.715C1414.5 965.764 1415.44 970.036 1413.39 973.257C1411.35 976.477 1407.07 977.425 1403.85 975.376C1400.63 973.326 1399.68 969.054 1401.73 965.834Z" fill="none" opacity="1" stroke="#000000" stroke-linecap="butt" stroke-linejoin="round" stroke-width="5"/>
</g>
</g>
<g opacity="1">
<path d="M136 49.8076L219.728 80.8148C245.228 90.2582 258.245 118.586 248.801 144.086L217.794 227.814C208.351 253.314 180.023 266.331 154.523 256.887L70.7948 225.88C45.2947 216.437 32.2783 188.109 41.7217 162.609L72.7289 78.8807C82.1723 53.3806 110.5 40.3642 136 49.8076Z" fill="#595959" fill-rule="nonzero" opacity="1" stroke="#bababa" stroke-linecap="butt" stroke-linejoin="round" stroke-width="3"/>
<path d="M137.114 55.8415C137.114 55.8415 222.691 87.6193 225.006 88.4766C227.321 89.3339 233.672 92.514 241.546 106.565C249.419 120.616 235.595 97.024 221.364 90.8727C194.721 79.3573 137.114 55.8415 137.114 55.8415Z" fill="#ffffff" fill-rule="nonzero" opacity="1" stroke="none"/>
<path d="M49.6426 162.048C49.6426 162.048 81.4205 76.472 82.2778 74.1571C83.1351 71.8421 86.3152 65.4906 100.366 57.6171C114.417 49.7436 90.8252 63.5675 84.6739 77.7993C73.1585 104.442 49.6426 162.048 49.6426 162.048Z" fill="#ffffff" fill-rule="nonzero" opacity="1" stroke="none"/>
<path d="M255.974 148.909L255.974 148.909C259.6 150.252 261.451 154.279 260.108 157.905L253.423 175.957C252.08 179.583 248.052 181.434 244.426 180.091L244.426 180.091C240.801 178.748 238.95 174.721 240.293 171.095L246.978 153.043C248.32 149.417 252.348 147.566 255.974 148.909Z" fill="#9d9d9d" fill-rule="nonzero" opacity="1" stroke="none"/>
</g>
<g opacity="1">
<path d="M2099.32 1098.86L2249.41 1043.36C2295.12 1026.46 2345.88 1049.82 2362.78 1095.53L2418.27 1245.61C2435.17 1291.32 2411.82 1342.08 2366.11 1358.98L2216.02 1414.48C2170.31 1431.38 2119.56 1408.02 2102.66 1362.31L2047.16 1212.23C2030.26 1166.52 2053.61 1115.76 2099.32 1098.86Z" fill="#595959" fill-rule="nonzero" opacity="1" stroke="#bababa" stroke-linecap="butt" stroke-linejoin="round" stroke-width="3"/>
<path d="M2107.88 1105.77C2107.88 1105.77 2261.38 1049.17 2265.53 1047.63C2269.68 1046.1 2282.03 1043.01 2309.14 1052.94C2336.24 1062.88 2289.91 1046.91 2263.37 1055.14C2213.69 1070.56 2107.88 1105.77 2107.88 1105.77Z" fill="#ffffff" fill-rule="nonzero" opacity="1" stroke="none"/>
<path d="M2112.78 1352.31C2112.78 1352.31 2056.18 1198.81 2054.64 1194.66C2053.11 1190.51 2050.02 1178.16 2059.96 1151.05C2069.89 1123.95 2053.92 1170.28 2062.15 1196.82C2077.57 1246.5 2112.78 1352.31 2112.78 1352.31Z" fill="#ffffff" fill-rule="nonzero" opacity="1" stroke="none"/>
<path d="M2378.16 1093.72L2378.16 1093.72C2384.66 1091.32 2391.88 1094.64 2394.28 1101.14L2406.25 1133.5C2408.65 1140 2405.33 1147.21 2398.83 1149.62L2398.83 1149.62C2392.33 1152.02 2385.11 1148.7 2382.71 1142.2L2370.75 1109.84C2368.34 1103.34 2371.66 1096.12 2378.16 1093.72Z" fill="#9d9d9d" fill-rule="nonzero" opacity="1" stroke="none"/>
</g>
</g>
</svg>
