<?xml version="1.0" encoding="UTF-8" standalone="no"?>
<!DOCTYPE svg PUBLIC "-//W3C//DTD SVG 1.1//EN" "http://www.w3.org/Graphics/SVG/1.1/DTD/svg11.dtd">
<!-- Created with Vectornator (http://vectornator.io/) -->
<svg height="100%" stroke-miterlimit="10" style="fill-rule:nonzero;clip-rule:evenodd;stroke-linecap:round;stroke-linejoin:round;" version="1.1" viewBox="0 0 1024 1024" width="100%" xml:space="preserve" xmlns="http://www.w3.org/2000/svg" xmlns:vectornator="http://vectornator.io" xmlns:xlink="http://www.w3.org/1999/xlink">
<defs/>
<g id="Layer-1" vectornator:layerName="Layer 1">
<g opacity="1">
<g opacity="1">
<path d="M358.702 51.4944L665.298 51.4944C704.199 51.4944 735.734 83.6316 735.734 123.275L735.734 849.931C735.734 889.574 704.199 921.712 665.298 921.712L358.702 921.712C319.801 921.712 288.266 889.574 288.266 849.931L288.266 123.275C288.266 83.6316 319.801 51.4944 358.702 51.4944Z" fill="#595959" fill-rule="nonzero" opacity="1" stroke="none"/>
<path d="M349.996 35.8206C307.205 35.8206 272.516 71.1716 272.516 114.779L272.516 858.427C272.516 902.034 307.205 937.385 349.996 937.385L674.004 937.385C716.795 937.385 751.484 902.034 751.484 858.427L751.484 114.779C751.484 71.1716 716.795 35.8206 674.004 35.8206L349.996 35.8206ZM358.713 51.4777L434.608 51.4777C437.419 51.9069 439.451 52.4917 439.451 53.4069C439.451 57.6631 439.451 76.4664 439.451 76.4664C439.451 80.3915 443.466 83.5548 448.475 83.5547L511.384 83.5547L512.616 83.5547L575.525 83.5547C580.534 83.5547 584.549 80.3914 584.549 76.4664C584.549 76.4664 584.549 57.6631 584.549 53.4069C584.549 52.4917 586.581 51.9069 589.392 51.4777L665.287 51.4777C704.188 51.4777 735.723 83.615 735.723 123.258L735.723 849.948C735.723 889.591 704.188 921.728 665.287 921.728L358.713 921.728C319.812 921.728 288.277 889.591 288.277 849.948L288.277 123.258C288.277 83.615 319.812 51.4777 358.713 51.4777Z" fill="#000000" fill-rule="nonzero" opacity="1" stroke="none"/>
</g>
<path d="M444.276 908.343L579.724 908.343C581.791 908.343 583.467 910.019 583.467 912.086L583.467 912.086C583.467 914.153 581.791 915.829 579.724 915.829L444.276 915.829C442.209 915.829 440.533 914.153 440.533 912.086L440.533 912.086C440.533 910.019 442.209 908.343 444.276 908.343Z" fill="#f7f7f7" fill-rule="nonzero" opacity="0.500838" stroke="none"/>
</g>
</g>
</svg>
